<mxfile host="65bd71144e" modified="2021-01-04T11:03:58.060Z" agent="5.0 (Windows NT 10.0; Win64; x64) AppleWebKit/537.36 (KHTML, like Gecko) Code/1.52.1 Chrome/83.0.4103.122 Electron/9.3.5 Safari/537.36" etag="d-MqEXRziDrrP0l0943G" version="13.10.0" type="embed">
    <diagram id="-DoxXB5ioh9CImpn-rvL" name="Page-1">
        <mxGraphModel dx="3410" dy="4026" grid="1" gridSize="10" guides="1" tooltips="1" connect="1" arrows="1" fold="1" page="1" pageScale="1" pageWidth="850" pageHeight="1100" math="0" shadow="0">
            <root>
                <mxCell id="0"/>
                <mxCell id="1" parent="0"/>
                <mxCell id="R5cSlF86ASt4ZV3UKbgb-78" value="" style="shape=folder;fontStyle=0;spacingTop=10;tabWidth=300;tabHeight=70;tabPosition=left;html=1;fontFamily=Times New Roman;fontSize=14;" parent="1" vertex="1">
                    <mxGeometry x="-2490" y="-3280" width="7400" height="3230" as="geometry"/>
                </mxCell>
                <mxCell id="LNlhiUmVujPS2ecl1WR9-28" value="engine" style="shape=folder;fontStyle=1;spacingTop=10;tabWidth=190;tabHeight=50;tabPosition=left;html=1;fontSize=14;fontFamily=Times New Roman;" parent="1" vertex="1">
                    <mxGeometry x="-2420" y="-3160" width="7220" height="1840" as="geometry"/>
                </mxCell>
                <mxCell id="LNlhiUmVujPS2ecl1WR9-110" value="" style="shape=folder;fontStyle=1;spacingTop=10;tabWidth=150;tabHeight=40;tabPosition=left;html=1;fontSize=14;fontFamily=Times New Roman;" parent="1" vertex="1">
                    <mxGeometry x="720" y="-3050" width="2420" height="1380" as="geometry"/>
                </mxCell>
                <mxCell id="LNlhiUmVujPS2ecl1WR9-5" value="" style="shape=folder;fontStyle=1;spacingTop=10;tabWidth=160;tabHeight=40;tabPosition=left;html=1;fontSize=14;fontFamily=Times New Roman;" parent="1" vertex="1">
                    <mxGeometry x="-2317.5" y="-3060" width="3000" height="1380" as="geometry"/>
                </mxCell>
                <mxCell id="LNlhiUmVujPS2ecl1WR9-1" value="Board" style="swimlane;fontStyle=1;align=center;verticalAlign=top;childLayout=stackLayout;horizontal=1;startSize=26;horizontalStack=0;resizeParent=1;resizeParentMax=0;resizeLast=0;collapsible=1;marginBottom=0;fontSize=14;fontFamily=Times New Roman;" parent="1" vertex="1">
                    <mxGeometry x="-2300" y="-2970" width="460" height="540" as="geometry"/>
                </mxCell>
                <mxCell id="LNlhiUmVujPS2ecl1WR9-2" value="+ boardConfig: Map&lt;Integer, Piece&gt;&#10;+ whitePieces: Collection&lt;Piece&gt;&#10;+ blackPieces: Collection&lt;Piece&gt;&#10;+ whitePlayer: WhitePlayer&#10;+ blackPlayer: BlackPlayer&#10;+ currentPlayer: Player&#10;+ enPassantPawn: Pawn&#10;+ transitionMove: Move&#10;+ STANDARD_BOARD: Board" style="text;strokeColor=none;fillColor=none;align=left;verticalAlign=top;spacingLeft=4;spacingRight=4;overflow=hidden;rotatable=0;points=[[0,0.5],[1,0.5]];portConstraint=eastwest;fontSize=14;fontFamily=Times New Roman;" parent="LNlhiUmVujPS2ecl1WR9-1" vertex="1">
                    <mxGeometry y="26" width="460" height="164" as="geometry"/>
                </mxCell>
                <mxCell id="LNlhiUmVujPS2ecl1WR9-3" value="" style="line;strokeWidth=1;fillColor=none;align=left;verticalAlign=middle;spacingTop=-1;spacingLeft=3;spacingRight=3;rotatable=0;labelPosition=right;points=[];portConstraint=eastwest;fontSize=14;fontFamily=Times New Roman;" parent="LNlhiUmVujPS2ecl1WR9-1" vertex="1">
                    <mxGeometry y="190" width="460" height="8" as="geometry"/>
                </mxCell>
                <mxCell id="LNlhiUmVujPS2ecl1WR9-4" value="&lt;&lt;constructor&gt;&gt;&#10;+ Board(builder: Builder)&#10;&lt;&lt;process&gt;&gt;&#10;+ toString(): String &lt;&lt;override&gt;&gt;&#10;+ prettyPrint(piece: Piece): String&#10;+ getBlackPieces(): Collection&lt;Piece&gt;&#10;+ getWhitePieces(): Collection&lt;Piece&gt;&#10;+ getAllPieces(): Collection&lt;Piece&gt;&#10;+ getAllLegalMoves(): Collection&lt;Move&gt;&#10;+ whitePlayer(): WhitePlayer&#10;+ blackPlayer(): BlackPlayer&#10;+ currentPlayer(): Player&#10;+ getPiece(coordinate: int): Piece&#10;+ getEnPassantPawn(): Pawn&#10;+ getTransitionMove: Move&#10;+ createStandardBoard(): Board&#10;+ createStandardBoardImpl(): Board&#10;+ calculateLegalMoves(pieces: Collection&lt;Piece&gt;): Collection&lt;Move&gt;&#10;+ calculateActivePieces(builder: Builder, alliance: Alliance): Collection&lt;Piece&gt;&#10;" style="text;strokeColor=none;fillColor=none;align=left;verticalAlign=top;spacingLeft=4;spacingRight=4;overflow=hidden;rotatable=0;points=[[0,0.5],[1,0.5]];portConstraint=eastwest;fontSize=14;fontFamily=Times New Roman;" parent="LNlhiUmVujPS2ecl1WR9-1" vertex="1">
                    <mxGeometry y="198" width="460" height="342" as="geometry"/>
                </mxCell>
                <mxCell id="LNlhiUmVujPS2ecl1WR9-7" value="Builder" style="swimlane;fontStyle=1;align=center;verticalAlign=top;childLayout=stackLayout;horizontal=1;startSize=26;horizontalStack=0;resizeParent=1;resizeParentMax=0;resizeLast=0;collapsible=1;marginBottom=0;fontSize=14;fontFamily=Times New Roman;" parent="1" vertex="1">
                    <mxGeometry x="-2235" y="-2380" width="330" height="260" as="geometry"/>
                </mxCell>
                <mxCell id="LNlhiUmVujPS2ecl1WR9-8" value="+ boardConfig: Map&lt;Integer, Piece&gt;&#10;+ nextMoveMaker: Alliance&#10;+ enPassantPawn: Pawn&#10;+ transitionMove: Move" style="text;strokeColor=none;fillColor=none;align=left;verticalAlign=top;spacingLeft=4;spacingRight=4;overflow=hidden;rotatable=0;points=[[0,0.5],[1,0.5]];portConstraint=eastwest;fontSize=14;fontFamily=Times New Roman;" parent="LNlhiUmVujPS2ecl1WR9-7" vertex="1">
                    <mxGeometry y="26" width="330" height="84" as="geometry"/>
                </mxCell>
                <mxCell id="LNlhiUmVujPS2ecl1WR9-9" value="" style="line;strokeWidth=1;fillColor=none;align=left;verticalAlign=middle;spacingTop=-1;spacingLeft=3;spacingRight=3;rotatable=0;labelPosition=right;points=[];portConstraint=eastwest;fontSize=14;fontFamily=Times New Roman;" parent="LNlhiUmVujPS2ecl1WR9-7" vertex="1">
                    <mxGeometry y="110" width="330" height="8" as="geometry"/>
                </mxCell>
                <mxCell id="LNlhiUmVujPS2ecl1WR9-10" value="&lt;&lt;constructor&gt;&gt;&#10;+ Builder()&#10;&lt;&lt;process&gt;&gt;&#10;+ setPiece(piece: Piece): Builder&#10;+ setMoveMaker(nextMoveMaker: Alliance): Builder&#10;+ setEnPassantPawn(enPassantPawn: Pawn): Builder&#10;+ setMoveTransition(transitionMove: Move): Builder&#10;+ build(): Board&#10;" style="text;strokeColor=none;fillColor=none;align=left;verticalAlign=top;spacingLeft=4;spacingRight=4;overflow=hidden;rotatable=0;points=[[0,0.5],[1,0.5]];portConstraint=eastwest;fontSize=14;fontFamily=Times New Roman;" parent="LNlhiUmVujPS2ecl1WR9-7" vertex="1">
                    <mxGeometry y="118" width="330" height="142" as="geometry"/>
                </mxCell>
                <mxCell id="LNlhiUmVujPS2ecl1WR9-12" value="" style="endArrow=open;startArrow=circlePlus;endFill=0;startFill=0;endSize=8;html=1;fontSize=14;fontFamily=Times New Roman;" parent="1" source="LNlhiUmVujPS2ecl1WR9-4" target="LNlhiUmVujPS2ecl1WR9-7" edge="1">
                    <mxGeometry width="160" relative="1" as="geometry">
                        <mxPoint x="-2340" y="-2510" as="sourcePoint"/>
                        <mxPoint x="-2180" y="-2510" as="targetPoint"/>
                    </mxGeometry>
                </mxCell>
                <mxCell id="LNlhiUmVujPS2ecl1WR9-13" value="&lt;&lt;enumeration&gt;&gt;&#10;BoardUtils" style="swimlane;fontStyle=1;align=center;verticalAlign=top;childLayout=stackLayout;horizontal=1;startSize=40;horizontalStack=0;resizeParent=1;resizeParentMax=0;resizeLast=0;collapsible=1;marginBottom=0;fontSize=14;fontFamily=Times New Roman;" parent="1" vertex="1">
                    <mxGeometry x="-1820" y="-2970" width="400" height="540" as="geometry"/>
                </mxCell>
                <mxCell id="LNlhiUmVujPS2ecl1WR9-14" value="+ INSTANCE&#10;+ FIRST_COLUMN: List&lt;Boolean&gt;&#10;+ SECOND_COLUMN: List&lt;Boolean&gt;&#10;+ THIRD_COLUMN: List&lt;Boolean&gt;&#10;+ FOURTH_COLUMN: List&lt;Boolean&gt;&#10;+ FIFTH_COLUMN: List&lt;Boolean&gt;&#10;+ SIXTH_COLUMN: List&lt;Boolean&gt;&#10;+ SEVENTH_COLUMN: List&lt;Boolean&gt;&#10;+ EIGHTH_COLUMN: List&lt;Boolean&gt;&#10;+ FIRST_ROW: List&lt;Boolean&gt;&#10;+ SECOND_ROW: List&lt;Boolean&gt;&#10;+ THIRD_ROW: List&lt;Boolean&gt;&#10;+ FOURTH_ROW: List&lt;Boolean&gt;&#10;+ FIFTH_ROW: List&lt;Boolean&gt;&#10;+ SIXTH_ROW: List&lt;Boolean&gt;&#10;+ SEVENTH_ROW: List&lt;Boolean&gt;&#10;+ EIGHTH_ROW: List&lt;Boolean&gt;&#10;+ ALGEBRAIC_NOTATION: List&lt;String&gt;&#10;+ START_TILE_INDEX: int&#10;+ NUM_TILES_PER_ROW: int&#10;+ NUM_TILES: int" style="text;strokeColor=none;fillColor=none;align=left;verticalAlign=top;spacingLeft=4;spacingRight=4;overflow=hidden;rotatable=0;points=[[0,0.5],[1,0.5]];portConstraint=eastwest;fontSize=14;fontFamily=Times New Roman;" parent="LNlhiUmVujPS2ecl1WR9-13" vertex="1">
                    <mxGeometry y="40" width="400" height="370" as="geometry"/>
                </mxCell>
                <mxCell id="LNlhiUmVujPS2ecl1WR9-15" value="" style="line;strokeWidth=1;fillColor=none;align=left;verticalAlign=middle;spacingTop=-1;spacingLeft=3;spacingRight=3;rotatable=0;labelPosition=right;points=[];portConstraint=eastwest;fontSize=14;fontFamily=Times New Roman;" parent="LNlhiUmVujPS2ecl1WR9-13" vertex="1">
                    <mxGeometry y="410" width="400" height="8" as="geometry"/>
                </mxCell>
                <mxCell id="LNlhiUmVujPS2ecl1WR9-16" value="+ initColumn(columnNumber: int): List&lt;Boolean&gt;&#10;+ initRow(rowNumber: int): List&lt;Boolean&gt;&#10;+ initializeAlgebraicNotation(): List&lt;String&gt;&#10;+ isValidTileCoordinate(coordinate: int): boolean&#10;+ getPositionAtCoordinate(coordinate: int): String&#10;+ isKingPawnTrap(board: Board, king: King, frontTile: int): boolean" style="text;strokeColor=none;fillColor=none;align=left;verticalAlign=top;spacingLeft=4;spacingRight=4;overflow=hidden;rotatable=0;points=[[0,0.5],[1,0.5]];portConstraint=eastwest;fontSize=14;fontFamily=Times New Roman;" parent="LNlhiUmVujPS2ecl1WR9-13" vertex="1">
                    <mxGeometry y="418" width="400" height="122" as="geometry"/>
                </mxCell>
                <mxCell id="LNlhiUmVujPS2ecl1WR9-18" value="&lt;&lt;abstract&gt;&gt;&#10;Move" style="swimlane;fontStyle=1;align=center;verticalAlign=top;childLayout=stackLayout;horizontal=1;startSize=40;horizontalStack=0;resizeParent=1;resizeParentMax=0;resizeLast=0;collapsible=1;marginBottom=0;fontSize=14;fontFamily=Times New Roman;" parent="1" vertex="1">
                    <mxGeometry x="-770" y="-2400" width="420" height="410" as="geometry">
                        <mxRectangle x="1110" width="110" height="40" as="alternateBounds"/>
                    </mxGeometry>
                </mxCell>
                <mxCell id="LNlhiUmVujPS2ecl1WR9-19" value="+ board: Board&#10;+ destinationCoordinate: int&#10;+ movedPiece: Piece&#10;+ isFirstMove: boolean" style="text;strokeColor=none;fillColor=none;align=left;verticalAlign=top;spacingLeft=4;spacingRight=4;overflow=hidden;rotatable=0;points=[[0,0.5],[1,0.5]];portConstraint=eastwest;fontSize=14;fontFamily=Times New Roman;" parent="LNlhiUmVujPS2ecl1WR9-18" vertex="1">
                    <mxGeometry y="40" width="420" height="80" as="geometry"/>
                </mxCell>
                <mxCell id="LNlhiUmVujPS2ecl1WR9-20" value="" style="line;strokeWidth=1;fillColor=none;align=left;verticalAlign=middle;spacingTop=-1;spacingLeft=3;spacingRight=3;rotatable=0;labelPosition=right;points=[];portConstraint=eastwest;fontSize=14;fontFamily=Times New Roman;" parent="LNlhiUmVujPS2ecl1WR9-18" vertex="1">
                    <mxGeometry y="120" width="420" height="8" as="geometry"/>
                </mxCell>
                <mxCell id="LNlhiUmVujPS2ecl1WR9-21" value="&lt;&lt;constructor&gt;&gt;&#10;+ Move(board: Board, pieceMoved: Piece, destinationCoordinate: int)&#10;+ Move(board: Board, destinationCoordinate: int)&#10;&lt;&lt;process&gt;&gt;&#10;+ hashCode(): int &lt;&lt;overrride&gt;&gt;&#10;+ equals(other: Object): boolean &lt;&lt;override&gt;&gt;&#10;+ getBoard(): Board&#10;+ getCurrentCoordinate(): int&#10;+ getDestinationCoordinate(): int&#10;+ getMovedPiece(): Piece&#10;+ isAttack(): boolean&#10;+ isCastlingMove(): boolean&#10;+ getAttackedPiece(): boolean&#10;+ execute(): Board&#10;+ undo(): Board&#10;+ disambiguationFile(): String&#10;" style="text;strokeColor=none;fillColor=none;align=left;verticalAlign=top;spacingLeft=4;spacingRight=4;overflow=hidden;rotatable=0;points=[[0,0.5],[1,0.5]];portConstraint=eastwest;fontSize=14;fontFamily=Times New Roman;" parent="LNlhiUmVujPS2ecl1WR9-18" vertex="1">
                    <mxGeometry y="128" width="420" height="282" as="geometry"/>
                </mxCell>
                <mxCell id="LNlhiUmVujPS2ecl1WR9-23" value="MoveTransition" style="swimlane;fontStyle=1;align=center;verticalAlign=top;childLayout=stackLayout;horizontal=1;startSize=26;horizontalStack=0;resizeParent=1;resizeParentMax=0;resizeLast=0;collapsible=1;marginBottom=0;fontSize=14;fontFamily=Times New Roman;" parent="1" vertex="1">
                    <mxGeometry x="-2250" y="-2050" width="600" height="250" as="geometry"/>
                </mxCell>
                <mxCell id="LNlhiUmVujPS2ecl1WR9-24" value="+ fromBoard: Board&#10;+ toBoard: Board&#10;+ transitionMove: Move&#10;+ moveStatus: MoveStatus" style="text;strokeColor=none;fillColor=none;align=left;verticalAlign=top;spacingLeft=4;spacingRight=4;overflow=hidden;rotatable=0;points=[[0,0.5],[1,0.5]];portConstraint=eastwest;fontSize=14;fontFamily=Times New Roman;" parent="LNlhiUmVujPS2ecl1WR9-23" vertex="1">
                    <mxGeometry y="26" width="600" height="84" as="geometry"/>
                </mxCell>
                <mxCell id="LNlhiUmVujPS2ecl1WR9-25" value="" style="line;strokeWidth=1;fillColor=none;align=left;verticalAlign=middle;spacingTop=-1;spacingLeft=3;spacingRight=3;rotatable=0;labelPosition=right;points=[];portConstraint=eastwest;fontSize=14;fontFamily=Times New Roman;" parent="LNlhiUmVujPS2ecl1WR9-23" vertex="1">
                    <mxGeometry y="110" width="600" height="8" as="geometry"/>
                </mxCell>
                <mxCell id="LNlhiUmVujPS2ecl1WR9-26" value="&lt;&lt;constructor&gt;&gt;&#10;+ MoveTransition(fromBoard: Board, toBoard: Board, transitionMove: Move, moveStatus: MoveStatus)&#10;&lt;&lt;process&gt;&gt;&#10;+ getFromBoard(): Board&#10;+ getToBoard(): Board&#10;+ getTransitionMove: Move&#10;+ getMoveStatus: MoveStatus" style="text;strokeColor=none;fillColor=none;align=left;verticalAlign=top;spacingLeft=4;spacingRight=4;overflow=hidden;rotatable=0;points=[[0,0.5],[1,0.5]];portConstraint=eastwest;fontSize=14;fontFamily=Times New Roman;" parent="LNlhiUmVujPS2ecl1WR9-23" vertex="1">
                    <mxGeometry y="118" width="600" height="132" as="geometry"/>
                </mxCell>
                <mxCell id="LNlhiUmVujPS2ecl1WR9-29" value="&lt;&lt;enumeration&gt;&gt;&#10;MoveStatus" style="swimlane;fontStyle=1;align=center;verticalAlign=top;childLayout=stackLayout;horizontal=1;startSize=40;horizontalStack=0;resizeParent=1;resizeParentMax=0;resizeLast=0;collapsible=1;marginBottom=0;fontSize=14;fontFamily=Times New Roman;" parent="1" vertex="1">
                    <mxGeometry x="-1400" y="-2550" width="210" height="130" as="geometry">
                        <mxRectangle x="480" y="440" width="130" height="40" as="alternateBounds"/>
                    </mxGeometry>
                </mxCell>
                <mxCell id="LNlhiUmVujPS2ecl1WR9-30" value="+ DONE&#10;+ ILLEGAL_MOVE&#10;+ LEAVES_PLAYER_IN_CHECK" style="text;strokeColor=none;fillColor=none;align=left;verticalAlign=top;spacingLeft=4;spacingRight=4;overflow=hidden;rotatable=0;points=[[0,0.5],[1,0.5]];portConstraint=eastwest;fontSize=14;fontFamily=Times New Roman;" parent="LNlhiUmVujPS2ecl1WR9-29" vertex="1">
                    <mxGeometry y="40" width="210" height="60" as="geometry"/>
                </mxCell>
                <mxCell id="LNlhiUmVujPS2ecl1WR9-31" value="" style="line;strokeWidth=1;fillColor=none;align=left;verticalAlign=middle;spacingTop=-1;spacingLeft=3;spacingRight=3;rotatable=0;labelPosition=right;points=[];portConstraint=eastwest;fontSize=14;fontFamily=Times New Roman;" parent="LNlhiUmVujPS2ecl1WR9-29" vertex="1">
                    <mxGeometry y="100" width="210" height="8" as="geometry"/>
                </mxCell>
                <mxCell id="LNlhiUmVujPS2ecl1WR9-32" value="+ isDone(): boolean &lt;&lt;abstract&gt;&gt;" style="text;strokeColor=none;fillColor=none;align=left;verticalAlign=top;spacingLeft=4;spacingRight=4;overflow=hidden;rotatable=0;points=[[0,0.5],[1,0.5]];portConstraint=eastwest;fontSize=14;fontFamily=Times New Roman;" parent="LNlhiUmVujPS2ecl1WR9-29" vertex="1">
                    <mxGeometry y="108" width="210" height="22" as="geometry"/>
                </mxCell>
                <mxCell id="LNlhiUmVujPS2ecl1WR9-33" value="MoveFactory" style="swimlane;fontStyle=1;align=center;verticalAlign=top;childLayout=stackLayout;horizontal=1;startSize=26;horizontalStack=0;resizeParent=1;resizeParentMax=0;resizeLast=0;collapsible=1;marginBottom=0;fontSize=14;fontFamily=Times New Roman;" parent="1" vertex="1">
                    <mxGeometry x="-1570" y="-2220" width="500" height="160" as="geometry">
                        <mxRectangle x="1100" y="-150" width="110" height="26" as="alternateBounds"/>
                    </mxGeometry>
                </mxCell>
                <mxCell id="LNlhiUmVujPS2ecl1WR9-34" value="+ NULL_MOVE: Move" style="text;strokeColor=none;fillColor=none;align=left;verticalAlign=top;spacingLeft=4;spacingRight=4;overflow=hidden;rotatable=0;points=[[0,0.5],[1,0.5]];portConstraint=eastwest;fontSize=14;fontFamily=Times New Roman;" parent="LNlhiUmVujPS2ecl1WR9-33" vertex="1">
                    <mxGeometry y="26" width="500" height="26" as="geometry"/>
                </mxCell>
                <mxCell id="LNlhiUmVujPS2ecl1WR9-35" value="" style="line;strokeWidth=1;fillColor=none;align=left;verticalAlign=middle;spacingTop=-1;spacingLeft=3;spacingRight=3;rotatable=0;labelPosition=right;points=[];portConstraint=eastwest;fontSize=14;fontFamily=Times New Roman;" parent="LNlhiUmVujPS2ecl1WR9-33" vertex="1">
                    <mxGeometry y="52" width="500" height="8" as="geometry"/>
                </mxCell>
                <mxCell id="LNlhiUmVujPS2ecl1WR9-36" value="&lt;&lt;constructor&gt;&gt;&#10;+ MoveFactory()&#10;&lt;&lt;process&gt;&gt;&#10;+ getNullMove(): Move&#10;+ createMove(board: Board, currentCoordinate: int, destinationCoordinate: int): Move" style="text;strokeColor=none;fillColor=none;align=left;verticalAlign=top;spacingLeft=4;spacingRight=4;overflow=hidden;rotatable=0;points=[[0,0.5],[1,0.5]];portConstraint=eastwest;fontSize=14;fontFamily=Times New Roman;" parent="LNlhiUmVujPS2ecl1WR9-33" vertex="1">
                    <mxGeometry y="60" width="500" height="100" as="geometry"/>
                </mxCell>
                <mxCell id="LNlhiUmVujPS2ecl1WR9-38" value="NullMove" style="swimlane;fontStyle=1;align=center;verticalAlign=top;childLayout=stackLayout;horizontal=1;startSize=26;horizontalStack=0;resizeParent=1;resizeParentMax=0;resizeLast=0;collapsible=1;marginBottom=0;fontSize=14;fontFamily=Times New Roman;" parent="1" vertex="1">
                    <mxGeometry x="-1400" y="-2390" width="280" height="160" as="geometry">
                        <mxRectangle x="1580" y="470" width="90" height="26" as="alternateBounds"/>
                    </mxGeometry>
                </mxCell>
                <mxCell id="LNlhiUmVujPS2ecl1WR9-40" value="" style="line;strokeWidth=1;fillColor=none;align=left;verticalAlign=middle;spacingTop=-1;spacingLeft=3;spacingRight=3;rotatable=0;labelPosition=right;points=[];portConstraint=eastwest;fontSize=14;fontFamily=Times New Roman;" parent="LNlhiUmVujPS2ecl1WR9-38" vertex="1">
                    <mxGeometry y="26" width="280" height="8" as="geometry"/>
                </mxCell>
                <mxCell id="LNlhiUmVujPS2ecl1WR9-41" value="&lt;&lt;constructor&gt;&gt;&#10;+ NullMove()&#10;&lt;&lt;process&gt;&gt;&#10;+ getCurrentCoordinate(): int &lt;&lt;override&gt;&gt;&#10;+ getDestinationCoordinate(): int &lt;&lt;override&gt;&gt;&#10;+ execute(): Board &lt;&lt;override&gt;&gt;&#10;+ toString: String &lt;&lt;override&gt;&gt;" style="text;strokeColor=none;fillColor=none;align=left;verticalAlign=top;spacingLeft=4;spacingRight=4;overflow=hidden;rotatable=0;points=[[0,0.5],[1,0.5]];portConstraint=eastwest;fontSize=14;fontFamily=Times New Roman;" parent="LNlhiUmVujPS2ecl1WR9-38" vertex="1">
                    <mxGeometry y="34" width="280" height="126" as="geometry"/>
                </mxCell>
                <mxCell id="LNlhiUmVujPS2ecl1WR9-42" value="&lt;&lt;abstract&gt;&gt;&#10;AttackMove" style="swimlane;fontStyle=1;align=center;verticalAlign=top;childLayout=stackLayout;horizontal=1;startSize=40;horizontalStack=0;resizeParent=1;resizeParentMax=0;resizeLast=0;collapsible=1;marginBottom=0;fontSize=14;fontFamily=Times New Roman;" parent="1" vertex="1">
                    <mxGeometry x="-845" y="-2640" width="570" height="200" as="geometry">
                        <mxRectangle x="900" width="110" height="40" as="alternateBounds"/>
                    </mxGeometry>
                </mxCell>
                <mxCell id="LNlhiUmVujPS2ecl1WR9-43" value="+ attackedPiece: Piece" style="text;strokeColor=none;fillColor=none;align=left;verticalAlign=top;spacingLeft=4;spacingRight=4;overflow=hidden;rotatable=0;points=[[0,0.5],[1,0.5]];portConstraint=eastwest;fontSize=14;fontFamily=Times New Roman;" parent="LNlhiUmVujPS2ecl1WR9-42" vertex="1">
                    <mxGeometry y="40" width="570" height="26" as="geometry"/>
                </mxCell>
                <mxCell id="LNlhiUmVujPS2ecl1WR9-44" value="" style="line;strokeWidth=1;fillColor=none;align=left;verticalAlign=middle;spacingTop=-1;spacingLeft=3;spacingRight=3;rotatable=0;labelPosition=right;points=[];portConstraint=eastwest;fontSize=14;fontFamily=Times New Roman;" parent="LNlhiUmVujPS2ecl1WR9-42" vertex="1">
                    <mxGeometry y="66" width="570" height="8" as="geometry"/>
                </mxCell>
                <mxCell id="LNlhiUmVujPS2ecl1WR9-45" value="&lt;&lt;constructor&gt;&gt;&#10;+ AttackMove(board: Board, pieceMoved: Piece, destinationCoordinate: int, pieceAttacked: Piece)&#10;&lt;&lt;process&gt;&gt;&#10;+ hashCode(): int &lt;&lt;override&gt;&gt;&#10;+ equals(other: Object): boolean &lt;&lt;override&gt;&gt;&#10;+ getAttackedPiece(): boolean &lt;&lt;override&gt;&gt;&#10;+ isAttack(): boolean &lt;&lt;override&gt;&gt;" style="text;strokeColor=none;fillColor=none;align=left;verticalAlign=top;spacingLeft=4;spacingRight=4;overflow=hidden;rotatable=0;points=[[0,0.5],[1,0.5]];portConstraint=eastwest;fontSize=14;fontFamily=Times New Roman;" parent="LNlhiUmVujPS2ecl1WR9-42" vertex="1">
                    <mxGeometry y="74" width="570" height="126" as="geometry"/>
                </mxCell>
                <mxCell id="LNlhiUmVujPS2ecl1WR9-46" value="&lt;&lt;abstract&gt;&gt;&#10;CastleMove" style="swimlane;fontStyle=1;align=center;verticalAlign=top;childLayout=stackLayout;horizontal=1;startSize=40;horizontalStack=0;resizeParent=1;resizeParentMax=0;resizeLast=0;collapsible=1;marginBottom=0;fontSize=14;fontFamily=Times New Roman;" parent="1" vertex="1">
                    <mxGeometry x="-230" y="-2355" width="820" height="250" as="geometry">
                        <mxRectangle x="920" y="330" width="110" height="40" as="alternateBounds"/>
                    </mxGeometry>
                </mxCell>
                <mxCell id="LNlhiUmVujPS2ecl1WR9-47" value="+ castleRook: Rook&#10;+ castleRookStart: int&#10;+ castleRookDestination: int" style="text;strokeColor=none;fillColor=none;align=left;verticalAlign=top;spacingLeft=4;spacingRight=4;overflow=hidden;rotatable=0;points=[[0,0.5],[1,0.5]];portConstraint=eastwest;fontSize=14;fontFamily=Times New Roman;" parent="LNlhiUmVujPS2ecl1WR9-46" vertex="1">
                    <mxGeometry y="40" width="820" height="60" as="geometry"/>
                </mxCell>
                <mxCell id="LNlhiUmVujPS2ecl1WR9-48" value="" style="line;strokeWidth=1;fillColor=none;align=left;verticalAlign=middle;spacingTop=-1;spacingLeft=3;spacingRight=3;rotatable=0;labelPosition=right;points=[];portConstraint=eastwest;fontSize=14;fontFamily=Times New Roman;" parent="LNlhiUmVujPS2ecl1WR9-46" vertex="1">
                    <mxGeometry y="100" width="820" height="8" as="geometry"/>
                </mxCell>
                <mxCell id="LNlhiUmVujPS2ecl1WR9-49" value="&lt;&lt;constructor&gt;&gt;&#10;+ CastleMove(board: Board, pieceMoved: Piece, destinationCoordinate: int, castleRook: Rook, castleRookStart: int, castleRookDestination: int)&#10;&lt;&lt;process&gt;&gt;&#10;+ getCastleRook(): Rook&#10;+ isCastlingMove(): boolean &lt;&lt;override&gt;&gt;&#10;+ execute(): Board &lt;&lt;override&gt;&gt;&#10;+ hashCode(): int &lt;&lt;override&gt;&gt;&#10;+ equals(other: Object): boolean &lt;&lt;override&gt;&gt;" style="text;strokeColor=none;fillColor=none;align=left;verticalAlign=top;spacingLeft=4;spacingRight=4;overflow=hidden;rotatable=0;points=[[0,0.5],[1,0.5]];portConstraint=eastwest;fontSize=14;fontFamily=Times New Roman;" parent="LNlhiUmVujPS2ecl1WR9-46" vertex="1">
                    <mxGeometry y="108" width="820" height="142" as="geometry"/>
                </mxCell>
                <mxCell id="LNlhiUmVujPS2ecl1WR9-50" value="PawnJump" style="swimlane;fontStyle=1;align=center;verticalAlign=top;childLayout=stackLayout;horizontal=1;startSize=30;horizontalStack=0;resizeParent=1;resizeParentMax=0;resizeLast=0;collapsible=1;marginBottom=0;fontSize=14;fontFamily=Times New Roman;" parent="1" vertex="1">
                    <mxGeometry x="-530" y="-1900" width="440" height="150" as="geometry">
                        <mxRectangle x="1390" y="135" width="100" height="30" as="alternateBounds"/>
                    </mxGeometry>
                </mxCell>
                <mxCell id="LNlhiUmVujPS2ecl1WR9-52" value="" style="line;strokeWidth=1;fillColor=none;align=left;verticalAlign=middle;spacingTop=-1;spacingLeft=3;spacingRight=3;rotatable=0;labelPosition=right;points=[];portConstraint=eastwest;fontSize=14;fontFamily=Times New Roman;" parent="LNlhiUmVujPS2ecl1WR9-50" vertex="1">
                    <mxGeometry y="30" width="440" height="8" as="geometry"/>
                </mxCell>
                <mxCell id="LNlhiUmVujPS2ecl1WR9-53" value="&lt;&lt;constructor&gt;&gt;&#10;+ PawnJump(board: Board, pieceMoved: Piece, destinationCoordinate: int)&#10;&lt;&lt;process&gt;&gt;&#10;+ equals(other: Object): boolean &lt;&lt;override&gt;&gt;&#10;+ execute(): Board &lt;&lt;override&gt;&gt;&#10;+ toString: String &lt;&lt;override&gt;&gt;&#10;" style="text;strokeColor=none;fillColor=none;align=left;verticalAlign=top;spacingLeft=4;spacingRight=4;overflow=hidden;rotatable=0;points=[[0,0.5],[1,0.5]];portConstraint=eastwest;fontSize=14;fontFamily=Times New Roman;" parent="LNlhiUmVujPS2ecl1WR9-50" vertex="1">
                    <mxGeometry y="38" width="440" height="112" as="geometry"/>
                </mxCell>
                <mxCell id="LNlhiUmVujPS2ecl1WR9-54" value="PawnMove" style="swimlane;fontStyle=1;align=center;verticalAlign=top;childLayout=stackLayout;horizontal=1;startSize=26;horizontalStack=0;resizeParent=1;resizeParentMax=0;resizeLast=0;collapsible=1;marginBottom=0;fontSize=14;fontFamily=Times New Roman;" parent="1" vertex="1">
                    <mxGeometry x="-1480" y="-1880" width="410" height="130" as="geometry">
                        <mxRectangle x="1230" y="300" width="90" height="26" as="alternateBounds"/>
                    </mxGeometry>
                </mxCell>
                <mxCell id="LNlhiUmVujPS2ecl1WR9-56" value="" style="line;strokeWidth=1;fillColor=none;align=left;verticalAlign=middle;spacingTop=-1;spacingLeft=3;spacingRight=3;rotatable=0;labelPosition=right;points=[];portConstraint=eastwest;fontSize=14;fontFamily=Times New Roman;" parent="LNlhiUmVujPS2ecl1WR9-54" vertex="1">
                    <mxGeometry y="26" width="410" height="8" as="geometry"/>
                </mxCell>
                <mxCell id="LNlhiUmVujPS2ecl1WR9-57" value="&lt;&lt;constructor&gt;&gt;&#10;+ PawnMove(board: Board, pieceMoved: Piece, destinationCoordinate: int)&#10;&lt;&lt;process&gt;&gt;&#10;+ equals(other: Object): boolean &lt;&lt;override&gt;&gt;&#10;+ toString: String &lt;&lt;override&gt;&gt;&#10;" style="text;strokeColor=none;fillColor=none;align=left;verticalAlign=top;spacingLeft=4;spacingRight=4;overflow=hidden;rotatable=0;points=[[0,0.5],[1,0.5]];portConstraint=eastwest;fontSize=14;fontFamily=Times New Roman;" parent="LNlhiUmVujPS2ecl1WR9-54" vertex="1">
                    <mxGeometry y="34" width="410" height="96" as="geometry"/>
                </mxCell>
                <mxCell id="LNlhiUmVujPS2ecl1WR9-58" value="MajorMove" style="swimlane;fontStyle=1;align=center;verticalAlign=top;childLayout=stackLayout;horizontal=1;startSize=26;horizontalStack=0;resizeParent=1;resizeParentMax=0;resizeLast=0;collapsible=1;marginBottom=0;fontSize=14;fontFamily=Times New Roman;" parent="1" vertex="1">
                    <mxGeometry x="-1520" y="-2050" width="440" height="130" as="geometry">
                        <mxRectangle x="1580" y="114" width="100" height="26" as="alternateBounds"/>
                    </mxGeometry>
                </mxCell>
                <mxCell id="LNlhiUmVujPS2ecl1WR9-60" value="" style="line;strokeWidth=1;fillColor=none;align=left;verticalAlign=middle;spacingTop=-1;spacingLeft=3;spacingRight=3;rotatable=0;labelPosition=right;points=[];portConstraint=eastwest;fontSize=14;fontFamily=Times New Roman;" parent="LNlhiUmVujPS2ecl1WR9-58" vertex="1">
                    <mxGeometry y="26" width="440" height="8" as="geometry"/>
                </mxCell>
                <mxCell id="LNlhiUmVujPS2ecl1WR9-61" value="&lt;&lt;constructor&gt;&gt;&#10;+ MajorMove(board: Board, pieceMoved: Piece, destinationCoordinate: int)&#10;&lt;&lt;process&gt;&gt;&#10;+ equals(other: Object): boolean &lt;&lt;override&gt;&gt;&#10;+ toString: String &lt;&lt;override&gt;&gt;&#10;" style="text;strokeColor=none;fillColor=none;align=left;verticalAlign=top;spacingLeft=4;spacingRight=4;overflow=hidden;rotatable=0;points=[[0,0.5],[1,0.5]];portConstraint=eastwest;fontSize=14;fontFamily=Times New Roman;" parent="LNlhiUmVujPS2ecl1WR9-58" vertex="1">
                    <mxGeometry y="34" width="440" height="96" as="geometry"/>
                </mxCell>
                <mxCell id="LNlhiUmVujPS2ecl1WR9-62" value="PawnPromotion" style="swimlane;fontStyle=1;align=center;verticalAlign=top;childLayout=stackLayout;horizontal=1;startSize=26;horizontalStack=0;resizeParent=1;resizeParentMax=0;resizeLast=0;collapsible=1;marginBottom=0;fontSize=14;fontFamily=Times New Roman;" parent="1" vertex="1">
                    <mxGeometry x="-960" y="-1940" width="380" height="250" as="geometry">
                        <mxRectangle x="1380" y="510" width="120" height="26" as="alternateBounds"/>
                    </mxGeometry>
                </mxCell>
                <mxCell id="LNlhiUmVujPS2ecl1WR9-63" value="+ decoratedMove: Move&#10;+ promotedPawn: Pawn&#10;+ promotionPiece: Piece" style="text;strokeColor=none;fillColor=none;align=left;verticalAlign=top;spacingLeft=4;spacingRight=4;overflow=hidden;rotatable=0;points=[[0,0.5],[1,0.5]];portConstraint=eastwest;fontSize=14;fontFamily=Times New Roman;" parent="LNlhiUmVujPS2ecl1WR9-62" vertex="1">
                    <mxGeometry y="26" width="380" height="54" as="geometry"/>
                </mxCell>
                <mxCell id="LNlhiUmVujPS2ecl1WR9-64" value="" style="line;strokeWidth=1;fillColor=none;align=left;verticalAlign=middle;spacingTop=-1;spacingLeft=3;spacingRight=3;rotatable=0;labelPosition=right;points=[];portConstraint=eastwest;fontSize=14;fontFamily=Times New Roman;" parent="LNlhiUmVujPS2ecl1WR9-62" vertex="1">
                    <mxGeometry y="80" width="380" height="8" as="geometry"/>
                </mxCell>
                <mxCell id="LNlhiUmVujPS2ecl1WR9-65" value="&lt;&lt;constructor&gt;&gt;&#10;+ PawnPromotion(decoratedMove: Move, promotionPiece: Piece)&#10;&lt;&lt;process&gt;&gt;&#10;+ hashCode(): int &lt;&lt;override&gt;&gt;&#10;+ equals(other: Object): boolean &lt;&lt;override&gt;&gt;&#10;+ getAttackedPiece(): boolean &lt;&lt;override&gt;&gt;&#10;+ isAttack(): boolean &lt;&lt;override&gt;&gt;&#10;+ execute(): Board &lt;&lt;override&gt;&gt;&#10;+ toString: String &lt;&lt;override&gt;&gt;&#10;" style="text;strokeColor=none;fillColor=none;align=left;verticalAlign=top;spacingLeft=4;spacingRight=4;overflow=hidden;rotatable=0;points=[[0,0.5],[1,0.5]];portConstraint=eastwest;fontSize=14;fontFamily=Times New Roman;" parent="LNlhiUmVujPS2ecl1WR9-62" vertex="1">
                    <mxGeometry y="88" width="380" height="162" as="geometry"/>
                </mxCell>
                <mxCell id="LNlhiUmVujPS2ecl1WR9-66" value="MajorAttackMove" style="swimlane;fontStyle=1;align=center;verticalAlign=top;childLayout=stackLayout;horizontal=1;startSize=26;horizontalStack=0;resizeParent=1;resizeParentMax=0;resizeLast=0;collapsible=1;marginBottom=0;fontSize=14;fontFamily=Times New Roman;" parent="1" vertex="1">
                    <mxGeometry x="-540" y="-2815" width="600" height="130" as="geometry">
                        <mxRectangle x="600" y="-406" width="130" height="26" as="alternateBounds"/>
                    </mxGeometry>
                </mxCell>
                <mxCell id="LNlhiUmVujPS2ecl1WR9-68" value="" style="line;strokeWidth=1;fillColor=none;align=left;verticalAlign=middle;spacingTop=-1;spacingLeft=3;spacingRight=3;rotatable=0;labelPosition=right;points=[];portConstraint=eastwest;fontSize=14;fontFamily=Times New Roman;" parent="LNlhiUmVujPS2ecl1WR9-66" vertex="1">
                    <mxGeometry y="26" width="600" height="8" as="geometry"/>
                </mxCell>
                <mxCell id="LNlhiUmVujPS2ecl1WR9-69" value="&lt;&lt;constructor&gt;&gt;&#10;+ MajorAttackMove(board: Board, pieceMoved: Piece, destinationCoordinate: int, pieceAttacked: Piece)&#10;&lt;&lt;process&gt;&gt;&#10;+ equals(other: Object): boolean &lt;&lt;override&gt;&gt;&#10;+ toString: String &lt;&lt;override&gt;&gt;" style="text;strokeColor=none;fillColor=none;align=left;verticalAlign=top;spacingLeft=4;spacingRight=4;overflow=hidden;rotatable=0;points=[[0,0.5],[1,0.5]];portConstraint=eastwest;fontSize=14;fontFamily=Times New Roman;" parent="LNlhiUmVujPS2ecl1WR9-66" vertex="1">
                    <mxGeometry y="34" width="600" height="96" as="geometry"/>
                </mxCell>
                <mxCell id="LNlhiUmVujPS2ecl1WR9-70" value="PawnAttackMove" style="swimlane;fontStyle=1;align=center;verticalAlign=top;childLayout=stackLayout;horizontal=1;startSize=26;horizontalStack=0;resizeParent=1;resizeParentMax=0;resizeLast=0;collapsible=1;marginBottom=0;fontSize=14;fontFamily=Times New Roman;" parent="1" vertex="1">
                    <mxGeometry x="-1160" y="-2815" width="600" height="130" as="geometry">
                        <mxRectangle x="1520" y="-280" width="130" height="26" as="alternateBounds"/>
                    </mxGeometry>
                </mxCell>
                <mxCell id="LNlhiUmVujPS2ecl1WR9-72" value="" style="line;strokeWidth=1;fillColor=none;align=left;verticalAlign=middle;spacingTop=-1;spacingLeft=3;spacingRight=3;rotatable=0;labelPosition=right;points=[];portConstraint=eastwest;fontSize=14;fontFamily=Times New Roman;" parent="LNlhiUmVujPS2ecl1WR9-70" vertex="1">
                    <mxGeometry y="26" width="600" height="8" as="geometry"/>
                </mxCell>
                <mxCell id="LNlhiUmVujPS2ecl1WR9-73" value="&lt;&lt;constructor&gt;&gt;&#10;+ PawnAttackMove(board: Board, pieceMoved: Piece, destinationCoordinate: int, pieceAttacked: Piece)&#10;&lt;&lt;process&gt;&gt;&#10;+ equals(other: Object): boolean &lt;&lt;override&gt;&gt;&#10;+ toString: String &lt;&lt;override&gt;&gt;" style="text;strokeColor=none;fillColor=none;align=left;verticalAlign=top;spacingLeft=4;spacingRight=4;overflow=hidden;rotatable=0;points=[[0,0.5],[1,0.5]];portConstraint=eastwest;fontSize=14;fontFamily=Times New Roman;" parent="LNlhiUmVujPS2ecl1WR9-70" vertex="1">
                    <mxGeometry y="34" width="600" height="96" as="geometry"/>
                </mxCell>
                <mxCell id="LNlhiUmVujPS2ecl1WR9-74" value="PawnEnPassantAttack" style="swimlane;fontStyle=1;align=center;verticalAlign=top;childLayout=stackLayout;horizontal=1;startSize=26;horizontalStack=0;resizeParent=1;resizeParentMax=0;resizeLast=0;collapsible=1;marginBottom=0;fontSize=14;fontFamily=Times New Roman;" parent="1" vertex="1">
                    <mxGeometry x="-855" y="-3010" width="590" height="150" as="geometry">
                        <mxRectangle x="1735" y="-290" width="160" height="26" as="alternateBounds"/>
                    </mxGeometry>
                </mxCell>
                <mxCell id="LNlhiUmVujPS2ecl1WR9-76" value="" style="line;strokeWidth=1;fillColor=none;align=left;verticalAlign=middle;spacingTop=-1;spacingLeft=3;spacingRight=3;rotatable=0;labelPosition=right;points=[];portConstraint=eastwest;fontSize=14;fontFamily=Times New Roman;" parent="LNlhiUmVujPS2ecl1WR9-74" vertex="1">
                    <mxGeometry y="26" width="590" height="8" as="geometry"/>
                </mxCell>
                <mxCell id="LNlhiUmVujPS2ecl1WR9-77" value="&lt;&lt;constructor&gt;&gt;&#10;+ PawnEnPassantAttack(board: Board, pieceMoved: Piece, destinationCoordinate: int, pieceAttacked: Piece)&#10;&lt;&lt;process&gt;&gt;&#10;+ equals(other: Object): boolean &lt;&lt;override&gt;&gt;&#10;+ execute(): Board &lt;&lt;override&gt;&gt;&#10;+ undo(): Board &lt;&lt;override&gt;&gt;" style="text;strokeColor=none;fillColor=none;align=left;verticalAlign=top;spacingLeft=4;spacingRight=4;overflow=hidden;rotatable=0;points=[[0,0.5],[1,0.5]];portConstraint=eastwest;fontSize=14;fontFamily=Times New Roman;" parent="LNlhiUmVujPS2ecl1WR9-74" vertex="1">
                    <mxGeometry y="34" width="590" height="116" as="geometry"/>
                </mxCell>
                <mxCell id="LNlhiUmVujPS2ecl1WR9-78" value="KingSideCastle" style="swimlane;fontStyle=1;align=center;verticalAlign=top;childLayout=stackLayout;horizontal=1;startSize=26;horizontalStack=0;resizeParent=1;resizeParentMax=0;resizeLast=0;collapsible=1;marginBottom=0;fontSize=14;fontFamily=Times New Roman;" parent="1" vertex="1">
                    <mxGeometry x="-225" y="-2530" width="840" height="130" as="geometry">
                        <mxRectangle x="1740" y="-140" width="120" height="26" as="alternateBounds"/>
                    </mxGeometry>
                </mxCell>
                <mxCell id="LNlhiUmVujPS2ecl1WR9-80" value="" style="line;strokeWidth=1;fillColor=none;align=left;verticalAlign=middle;spacingTop=-1;spacingLeft=3;spacingRight=3;rotatable=0;labelPosition=right;points=[];portConstraint=eastwest;fontSize=14;fontFamily=Times New Roman;" parent="LNlhiUmVujPS2ecl1WR9-78" vertex="1">
                    <mxGeometry y="26" width="840" height="8" as="geometry"/>
                </mxCell>
                <mxCell id="LNlhiUmVujPS2ecl1WR9-81" value="&lt;&lt;constructor&gt;&gt;&#10;+ KingSideCastle(board: Board, pieceMoved: Piece, destinationCoordinate: int, castleRook: Rook, castleRookStart: int, castleRookDestination: int)&#10;&lt;&lt;process&gt;&gt;&#10;+ equals(other: Object): boolean &lt;&lt;override&gt;&gt;&#10;+ toString: String &lt;&lt;override&gt;&gt;" style="text;strokeColor=none;fillColor=none;align=left;verticalAlign=top;spacingLeft=4;spacingRight=4;overflow=hidden;rotatable=0;points=[[0,0.5],[1,0.5]];portConstraint=eastwest;fontSize=14;fontFamily=Times New Roman;" parent="LNlhiUmVujPS2ecl1WR9-78" vertex="1">
                    <mxGeometry y="34" width="840" height="96" as="geometry"/>
                </mxCell>
                <mxCell id="LNlhiUmVujPS2ecl1WR9-82" value="QueenSideCastle" style="swimlane;fontStyle=1;align=center;verticalAlign=top;childLayout=stackLayout;horizontal=1;startSize=26;horizontalStack=0;resizeParent=1;resizeParentMax=0;resizeLast=0;collapsible=1;marginBottom=0;fontSize=14;fontFamily=Times New Roman;" parent="1" vertex="1">
                    <mxGeometry x="-230" y="-2060" width="850" height="130" as="geometry">
                        <mxRectangle x="1860" y="150" width="130" height="26" as="alternateBounds"/>
                    </mxGeometry>
                </mxCell>
                <mxCell id="LNlhiUmVujPS2ecl1WR9-84" value="" style="line;strokeWidth=1;fillColor=none;align=left;verticalAlign=middle;spacingTop=-1;spacingLeft=3;spacingRight=3;rotatable=0;labelPosition=right;points=[];portConstraint=eastwest;fontSize=14;fontFamily=Times New Roman;" parent="LNlhiUmVujPS2ecl1WR9-82" vertex="1">
                    <mxGeometry y="26" width="850" height="8" as="geometry"/>
                </mxCell>
                <mxCell id="LNlhiUmVujPS2ecl1WR9-85" value="&lt;&lt;constructor&gt;&gt;&#10;+ QueenSideCastle(board: Board, pieceMoved: Piece, destinationCoordinate: int, castleRook: Rook, castleRookStart: int, castleRookDestination: int)&#10;&lt;&lt;process&gt;&gt;&#10;+ equals(other: Object): boolean &lt;&lt;override&gt;&gt;&#10;+ toString: String &lt;&lt;override&gt;&gt;" style="text;strokeColor=none;fillColor=none;align=left;verticalAlign=top;spacingLeft=4;spacingRight=4;overflow=hidden;rotatable=0;points=[[0,0.5],[1,0.5]];portConstraint=eastwest;fontSize=14;fontFamily=Times New Roman;" parent="LNlhiUmVujPS2ecl1WR9-82" vertex="1">
                    <mxGeometry y="34" width="850" height="96" as="geometry"/>
                </mxCell>
                <mxCell id="LNlhiUmVujPS2ecl1WR9-86" value="" style="endArrow=open;startArrow=circlePlus;endFill=0;startFill=0;endSize=8;html=1;fontSize=14;fontFamily=Times New Roman;" parent="1" source="LNlhiUmVujPS2ecl1WR9-18" target="LNlhiUmVujPS2ecl1WR9-29" edge="1">
                    <mxGeometry width="160" relative="1" as="geometry">
                        <mxPoint x="-30" y="-1510" as="sourcePoint"/>
                        <mxPoint x="130" y="-1510" as="targetPoint"/>
                    </mxGeometry>
                </mxCell>
                <mxCell id="LNlhiUmVujPS2ecl1WR9-87" value="" style="endArrow=open;startArrow=circlePlus;endFill=0;startFill=0;endSize=8;html=1;fontSize=14;fontFamily=Times New Roman;" parent="1" source="LNlhiUmVujPS2ecl1WR9-18" target="LNlhiUmVujPS2ecl1WR9-33" edge="1">
                    <mxGeometry width="160" relative="1" as="geometry">
                        <mxPoint x="-175" y="-1320" as="sourcePoint"/>
                        <mxPoint x="-15" y="-1320" as="targetPoint"/>
                    </mxGeometry>
                </mxCell>
                <mxCell id="LNlhiUmVujPS2ecl1WR9-88" value="" style="endArrow=open;startArrow=circlePlus;endFill=0;startFill=0;endSize=8;html=1;exitX=0.5;exitY=0;exitDx=0;exitDy=0;fontSize=14;fontFamily=Times New Roman;" parent="1" source="LNlhiUmVujPS2ecl1WR9-18" target="LNlhiUmVujPS2ecl1WR9-45" edge="1">
                    <mxGeometry width="160" relative="1" as="geometry">
                        <mxPoint x="-370" y="-1820" as="sourcePoint"/>
                        <mxPoint x="-320" y="-1890" as="targetPoint"/>
                    </mxGeometry>
                </mxCell>
                <mxCell id="LNlhiUmVujPS2ecl1WR9-89" value="" style="endArrow=open;startArrow=circlePlus;endFill=0;startFill=0;endSize=8;html=1;fontSize=14;fontFamily=Times New Roman;" parent="1" source="LNlhiUmVujPS2ecl1WR9-18" target="LNlhiUmVujPS2ecl1WR9-46" edge="1">
                    <mxGeometry width="160" relative="1" as="geometry">
                        <mxPoint x="-110" y="-1710" as="sourcePoint"/>
                        <mxPoint x="-180" y="-1710" as="targetPoint"/>
                    </mxGeometry>
                </mxCell>
                <mxCell id="LNlhiUmVujPS2ecl1WR9-90" value="" style="endArrow=open;startArrow=circlePlus;endFill=0;startFill=0;endSize=8;html=1;fontSize=14;fontFamily=Times New Roman;" parent="1" source="LNlhiUmVujPS2ecl1WR9-18" target="LNlhiUmVujPS2ecl1WR9-58" edge="1">
                    <mxGeometry width="160" relative="1" as="geometry">
                        <mxPoint x="-110" y="-1550" as="sourcePoint"/>
                        <mxPoint x="50" y="-1550" as="targetPoint"/>
                    </mxGeometry>
                </mxCell>
                <mxCell id="LNlhiUmVujPS2ecl1WR9-91" value="" style="endArrow=open;startArrow=circlePlus;endFill=0;startFill=0;endSize=8;html=1;fontSize=14;fontFamily=Times New Roman;" parent="1" source="LNlhiUmVujPS2ecl1WR9-18" target="LNlhiUmVujPS2ecl1WR9-38" edge="1">
                    <mxGeometry width="160" relative="1" as="geometry">
                        <mxPoint x="-110" y="-1550" as="sourcePoint"/>
                        <mxPoint x="50" y="-1550" as="targetPoint"/>
                    </mxGeometry>
                </mxCell>
                <mxCell id="LNlhiUmVujPS2ecl1WR9-92" value="" style="endArrow=open;startArrow=circlePlus;endFill=0;startFill=0;endSize=8;html=1;fontSize=14;fontFamily=Times New Roman;" parent="1" source="LNlhiUmVujPS2ecl1WR9-18" target="LNlhiUmVujPS2ecl1WR9-54" edge="1">
                    <mxGeometry width="160" relative="1" as="geometry">
                        <mxPoint x="-110" y="-1380" as="sourcePoint"/>
                        <mxPoint x="50" y="-1380" as="targetPoint"/>
                    </mxGeometry>
                </mxCell>
                <mxCell id="LNlhiUmVujPS2ecl1WR9-94" value="" style="endArrow=open;startArrow=circlePlus;endFill=0;startFill=0;endSize=8;html=1;fontSize=14;fontFamily=Times New Roman;" parent="1" source="LNlhiUmVujPS2ecl1WR9-21" target="LNlhiUmVujPS2ecl1WR9-50" edge="1">
                    <mxGeometry width="160" relative="1" as="geometry">
                        <mxPoint x="130" y="-1550" as="sourcePoint"/>
                        <mxPoint x="290" y="-1550" as="targetPoint"/>
                    </mxGeometry>
                </mxCell>
                <mxCell id="LNlhiUmVujPS2ecl1WR9-96" value="Extends" style="endArrow=block;endSize=16;endFill=0;html=1;fontSize=14;fontFamily=Times New Roman;" parent="1" source="LNlhiUmVujPS2ecl1WR9-62" target="LNlhiUmVujPS2ecl1WR9-54" edge="1">
                    <mxGeometry width="160" relative="1" as="geometry">
                        <mxPoint x="70" y="-1380" as="sourcePoint"/>
                        <mxPoint x="230" y="-1380" as="targetPoint"/>
                    </mxGeometry>
                </mxCell>
                <mxCell id="LNlhiUmVujPS2ecl1WR9-97" value="" style="endArrow=open;startArrow=circlePlus;endFill=0;startFill=0;endSize=8;html=1;fontSize=14;fontFamily=Times New Roman;" parent="1" source="LNlhiUmVujPS2ecl1WR9-18" target="LNlhiUmVujPS2ecl1WR9-62" edge="1">
                    <mxGeometry width="160" relative="1" as="geometry">
                        <mxPoint x="70" y="-1380" as="sourcePoint"/>
                        <mxPoint x="230" y="-1380" as="targetPoint"/>
                    </mxGeometry>
                </mxCell>
                <mxCell id="LNlhiUmVujPS2ecl1WR9-98" value="" style="endArrow=open;startArrow=circlePlus;endFill=0;startFill=0;endSize=8;html=1;exitX=1;exitY=0.5;exitDx=0;exitDy=0;entryX=0;entryY=0.977;entryDx=0;entryDy=0;entryPerimeter=0;fontSize=14;fontFamily=Times New Roman;" parent="1" source="LNlhiUmVujPS2ecl1WR9-19" target="LNlhiUmVujPS2ecl1WR9-81" edge="1">
                    <mxGeometry width="160" relative="1" as="geometry">
                        <mxPoint x="250" y="-1720" as="sourcePoint"/>
                        <mxPoint x="410" y="-1720" as="targetPoint"/>
                    </mxGeometry>
                </mxCell>
                <mxCell id="LNlhiUmVujPS2ecl1WR9-99" value="" style="endArrow=open;startArrow=circlePlus;endFill=0;startFill=0;endSize=8;html=1;entryX=0;entryY=0;entryDx=0;entryDy=0;fontSize=14;fontFamily=Times New Roman;" parent="1" source="LNlhiUmVujPS2ecl1WR9-18" target="LNlhiUmVujPS2ecl1WR9-82" edge="1">
                    <mxGeometry width="160" relative="1" as="geometry">
                        <mxPoint x="250" y="-1720" as="sourcePoint"/>
                        <mxPoint x="410" y="-1720" as="targetPoint"/>
                    </mxGeometry>
                </mxCell>
                <mxCell id="LNlhiUmVujPS2ecl1WR9-100" value="Extends" style="endArrow=block;endSize=16;endFill=0;html=1;fontSize=14;fontFamily=Times New Roman;" parent="1" source="LNlhiUmVujPS2ecl1WR9-82" target="LNlhiUmVujPS2ecl1WR9-46" edge="1">
                    <mxGeometry width="160" relative="1" as="geometry">
                        <mxPoint x="250" y="-1720" as="sourcePoint"/>
                        <mxPoint x="410" y="-1720" as="targetPoint"/>
                    </mxGeometry>
                </mxCell>
                <mxCell id="LNlhiUmVujPS2ecl1WR9-101" value="Extends" style="endArrow=block;endSize=16;endFill=0;html=1;fontSize=14;fontFamily=Times New Roman;" parent="1" source="LNlhiUmVujPS2ecl1WR9-78" target="LNlhiUmVujPS2ecl1WR9-46" edge="1">
                    <mxGeometry width="160" relative="1" as="geometry">
                        <mxPoint x="250" y="-1720" as="sourcePoint"/>
                        <mxPoint x="410" y="-1720" as="targetPoint"/>
                    </mxGeometry>
                </mxCell>
                <mxCell id="LNlhiUmVujPS2ecl1WR9-102" value="" style="endArrow=open;startArrow=circlePlus;endFill=0;startFill=0;endSize=8;html=1;fontSize=14;fontFamily=Times New Roman;" parent="1" source="LNlhiUmVujPS2ecl1WR9-18" target="LNlhiUmVujPS2ecl1WR9-66" edge="1">
                    <mxGeometry width="160" relative="1" as="geometry">
                        <mxPoint x="-170" y="-2050" as="sourcePoint"/>
                        <mxPoint x="-10" y="-2050" as="targetPoint"/>
                        <Array as="points">
                            <mxPoint x="-250" y="-2420"/>
                        </Array>
                    </mxGeometry>
                </mxCell>
                <mxCell id="LNlhiUmVujPS2ecl1WR9-103" value="" style="endArrow=open;startArrow=circlePlus;endFill=0;startFill=0;endSize=8;html=1;fontSize=14;fontFamily=Times New Roman;" parent="1" source="LNlhiUmVujPS2ecl1WR9-18" target="LNlhiUmVujPS2ecl1WR9-70" edge="1">
                    <mxGeometry width="160" relative="1" as="geometry">
                        <mxPoint x="-170" y="-2050" as="sourcePoint"/>
                        <mxPoint x="-10" y="-2050" as="targetPoint"/>
                        <Array as="points">
                            <mxPoint x="-880" y="-2430"/>
                        </Array>
                    </mxGeometry>
                </mxCell>
                <mxCell id="LNlhiUmVujPS2ecl1WR9-104" value="" style="endArrow=open;startArrow=circlePlus;endFill=0;startFill=0;endSize=8;html=1;entryX=0;entryY=0.5;entryDx=0;entryDy=0;fontSize=14;fontFamily=Times New Roman;" parent="1" source="LNlhiUmVujPS2ecl1WR9-18" target="LNlhiUmVujPS2ecl1WR9-77" edge="1">
                    <mxGeometry width="160" relative="1" as="geometry">
                        <mxPoint x="-170" y="-2050" as="sourcePoint"/>
                        <mxPoint x="-10" y="-2050" as="targetPoint"/>
                        <Array as="points">
                            <mxPoint x="-1180" y="-2500"/>
                            <mxPoint x="-1180" y="-2880"/>
                        </Array>
                    </mxGeometry>
                </mxCell>
                <mxCell id="LNlhiUmVujPS2ecl1WR9-105" value="Extends" style="endArrow=block;endSize=16;endFill=0;html=1;fontSize=14;fontFamily=Times New Roman;" parent="1" source="LNlhiUmVujPS2ecl1WR9-74" target="LNlhiUmVujPS2ecl1WR9-70" edge="1">
                    <mxGeometry width="160" relative="1" as="geometry">
                        <mxPoint x="-170" y="-2300" as="sourcePoint"/>
                        <mxPoint x="-10" y="-2300" as="targetPoint"/>
                    </mxGeometry>
                </mxCell>
                <mxCell id="LNlhiUmVujPS2ecl1WR9-106" value="Extends" style="endArrow=block;endSize=16;endFill=0;html=1;fontSize=14;fontFamily=Times New Roman;" parent="1" source="LNlhiUmVujPS2ecl1WR9-66" target="LNlhiUmVujPS2ecl1WR9-42" edge="1">
                    <mxGeometry width="160" relative="1" as="geometry">
                        <mxPoint x="40" y="-2130" as="sourcePoint"/>
                        <mxPoint x="200" y="-2130" as="targetPoint"/>
                    </mxGeometry>
                </mxCell>
                <mxCell id="LNlhiUmVujPS2ecl1WR9-107" value="Extends" style="endArrow=block;endSize=16;endFill=0;html=1;fontSize=14;fontFamily=Times New Roman;" parent="1" source="LNlhiUmVujPS2ecl1WR9-73" target="LNlhiUmVujPS2ecl1WR9-42" edge="1">
                    <mxGeometry width="160" relative="1" as="geometry">
                        <mxPoint x="40" y="-2130" as="sourcePoint"/>
                        <mxPoint x="200" y="-2130" as="targetPoint"/>
                    </mxGeometry>
                </mxCell>
                <mxCell id="LNlhiUmVujPS2ecl1WR9-108" value="&lt;span style=&quot;font-weight: 700&quot;&gt;&lt;font style=&quot;font-size: 20px&quot;&gt;board&lt;/font&gt;&lt;/span&gt;" style="text;html=1;strokeColor=none;fillColor=none;align=center;verticalAlign=middle;whiteSpace=wrap;rounded=0;fontSize=14;fontFamily=Times New Roman;" parent="1" vertex="1">
                    <mxGeometry x="-2280" y="-3060" width="85" height="40" as="geometry"/>
                </mxCell>
                <mxCell id="LNlhiUmVujPS2ecl1WR9-111" value="&lt;b&gt;&lt;font style=&quot;font-size: 22px&quot;&gt;pieces&lt;/font&gt;&lt;/b&gt;" style="text;html=1;strokeColor=none;fillColor=none;align=center;verticalAlign=middle;whiteSpace=wrap;rounded=0;fontSize=14;fontFamily=Times New Roman;" parent="1" vertex="1">
                    <mxGeometry x="760" y="-3050" width="80" height="40" as="geometry"/>
                </mxCell>
                <mxCell id="LNlhiUmVujPS2ecl1WR9-112" value="&lt;&lt;abstract&gt;&gt;&#10;Piece" style="swimlane;fontStyle=1;align=center;verticalAlign=top;childLayout=stackLayout;horizontal=1;startSize=40;horizontalStack=0;resizeParent=1;resizeParentMax=0;resizeLast=0;collapsible=1;marginBottom=0;fontSize=14;fontFamily=Times New Roman;" parent="1" vertex="1">
                    <mxGeometry x="1780" y="-2750" width="490" height="360" as="geometry"/>
                </mxCell>
                <mxCell id="LNlhiUmVujPS2ecl1WR9-113" value="+ pieceType: PieceType&#10;+ pieceAlliance: Alliance&#10;+ piecePosition: int&#10;+ isFirstMove: boolean&#10;+ cachedHashCode: int" style="text;strokeColor=none;fillColor=none;align=left;verticalAlign=top;spacingLeft=4;spacingRight=4;overflow=hidden;rotatable=0;points=[[0,0.5],[1,0.5]];portConstraint=eastwest;fontSize=14;fontFamily=Times New Roman;" parent="LNlhiUmVujPS2ecl1WR9-112" vertex="1">
                    <mxGeometry y="40" width="490" height="100" as="geometry"/>
                </mxCell>
                <mxCell id="LNlhiUmVujPS2ecl1WR9-114" value="" style="line;strokeWidth=1;fillColor=none;align=left;verticalAlign=middle;spacingTop=-1;spacingLeft=3;spacingRight=3;rotatable=0;labelPosition=right;points=[];portConstraint=eastwest;fontSize=14;fontFamily=Times New Roman;" parent="LNlhiUmVujPS2ecl1WR9-112" vertex="1">
                    <mxGeometry y="140" width="490" height="8" as="geometry"/>
                </mxCell>
                <mxCell id="LNlhiUmVujPS2ecl1WR9-115" value="&lt;&lt;constructor&gt;&gt;&#10;+ Piece(type: PieceType, alliance: Alliance, piecePosition: int, isFirstMove: boolean)&#10;&lt;&lt;process&gt;&gt;&#10;+ getPieceType(): PieceType&#10;+ getPieceAllegiance(): Alliance&#10;+ getPiecePosition(): int&#10;+ isFirstMove(): boolean&#10;+ movePiece(move: Move): Piece &lt;&lt;abstract&gt;&gt; &#10;+ calculateLegalMoves(board: Board): Collection&lt;Move&gt; &lt;&lt;abstract&gt;&gt;&#10;+ hashCode(): int &lt;&lt;override&gt;&gt;&#10;+ equals(other: Object): boolean &lt;&lt;override&gt;&gt;&#10;+ computeHashCode(): int&#10;" style="text;strokeColor=none;fillColor=none;align=left;verticalAlign=top;spacingLeft=4;spacingRight=4;overflow=hidden;rotatable=0;points=[[0,0.5],[1,0.5]];portConstraint=eastwest;fontSize=14;fontFamily=Times New Roman;" parent="LNlhiUmVujPS2ecl1WR9-112" vertex="1">
                    <mxGeometry y="148" width="490" height="212" as="geometry"/>
                </mxCell>
                <mxCell id="LNlhiUmVujPS2ecl1WR9-116" value="&lt;&lt;enumeration&gt;&gt;&#10;PieceType" style="swimlane;fontStyle=1;align=center;verticalAlign=top;childLayout=stackLayout;horizontal=1;startSize=40;horizontalStack=0;resizeParent=1;resizeParentMax=0;resizeLast=0;collapsible=1;marginBottom=0;fontSize=14;fontFamily=Times New Roman;" parent="1" vertex="1">
                    <mxGeometry x="1920" y="-2330" width="210" height="260" as="geometry"/>
                </mxCell>
                <mxCell id="LNlhiUmVujPS2ecl1WR9-117" value="+ PAWN&#10;+ KNIGHT&#10;+ BISHOP&#10;+ ROOK&#10;+ QUEEN&#10;+ KING&#10;+ pieceName: String" style="text;strokeColor=none;fillColor=none;align=left;verticalAlign=top;spacingLeft=4;spacingRight=4;overflow=hidden;rotatable=0;points=[[0,0.5],[1,0.5]];portConstraint=eastwest;fontSize=14;fontFamily=Times New Roman;" parent="LNlhiUmVujPS2ecl1WR9-116" vertex="1">
                    <mxGeometry y="40" width="210" height="130" as="geometry"/>
                </mxCell>
                <mxCell id="LNlhiUmVujPS2ecl1WR9-118" value="" style="line;strokeWidth=1;fillColor=none;align=left;verticalAlign=middle;spacingTop=-1;spacingLeft=3;spacingRight=3;rotatable=0;labelPosition=right;points=[];portConstraint=eastwest;fontSize=14;fontFamily=Times New Roman;" parent="LNlhiUmVujPS2ecl1WR9-116" vertex="1">
                    <mxGeometry y="170" width="210" height="8" as="geometry"/>
                </mxCell>
                <mxCell id="LNlhiUmVujPS2ecl1WR9-119" value="&lt;&lt;constructor&gt;&gt;&#10;+ PieceType(pieceName: String)&#10;&lt;&lt;process&gt;&gt;&#10;+ toString: String&#10;" style="text;strokeColor=none;fillColor=none;align=left;verticalAlign=top;spacingLeft=4;spacingRight=4;overflow=hidden;rotatable=0;points=[[0,0.5],[1,0.5]];portConstraint=eastwest;fontSize=14;fontFamily=Times New Roman;" parent="LNlhiUmVujPS2ecl1WR9-116" vertex="1">
                    <mxGeometry y="178" width="210" height="82" as="geometry"/>
                </mxCell>
                <mxCell id="LNlhiUmVujPS2ecl1WR9-120" value="" style="endArrow=open;startArrow=circlePlus;endFill=0;startFill=0;endSize=8;html=1;fontSize=14;fontFamily=Times New Roman;" parent="1" source="LNlhiUmVujPS2ecl1WR9-112" target="LNlhiUmVujPS2ecl1WR9-116" edge="1">
                    <mxGeometry width="160" relative="1" as="geometry">
                        <mxPoint x="1170" y="-2620" as="sourcePoint"/>
                        <mxPoint x="1330" y="-2620" as="targetPoint"/>
                    </mxGeometry>
                </mxCell>
                <mxCell id="LNlhiUmVujPS2ecl1WR9-121" value="&lt;&lt;enumeration&gt;&gt;&#10;PieceUtils" style="swimlane;fontStyle=1;align=center;verticalAlign=top;childLayout=stackLayout;horizontal=1;startSize=40;horizontalStack=0;resizeParent=1;resizeParentMax=0;resizeLast=0;collapsible=1;marginBottom=0;fontSize=14;fontFamily=Times New Roman;" parent="1" vertex="1">
                    <mxGeometry x="1800" y="-2040" width="450" height="350" as="geometry"/>
                </mxCell>
                <mxCell id="LNlhiUmVujPS2ecl1WR9-122" value="+ INSTANCE&#10;+ ALL_POSSIBLE_QUEENS: Table&lt;Alliance, Integer, Queen&gt;&#10;+ ALL_POSSIBLE_ROOKS: Table&lt;Alliance, Integer, Rook&gt;&#10;+ ALL_POSSIBLE_KNIGHTS: Table&lt;Alliance, Integer, Knight&gt;&#10;+ ALL_POSSIBLE_BISHOPS: Table&lt;Alliance, Integer, Bishop&gt;&#10;+ ALL_POSSIBLE_PAWNS: Table&lt;Alliance, Integer, Pawn&gt;&#10;&#10;" style="text;strokeColor=none;fillColor=none;align=left;verticalAlign=top;spacingLeft=4;spacingRight=4;overflow=hidden;rotatable=0;points=[[0,0.5],[1,0.5]];portConstraint=eastwest;fontSize=14;fontFamily=Times New Roman;" parent="LNlhiUmVujPS2ecl1WR9-121" vertex="1">
                    <mxGeometry y="40" width="450" height="110" as="geometry"/>
                </mxCell>
                <mxCell id="LNlhiUmVujPS2ecl1WR9-123" value="" style="line;strokeWidth=1;fillColor=none;align=left;verticalAlign=middle;spacingTop=-1;spacingLeft=3;spacingRight=3;rotatable=0;labelPosition=right;points=[];portConstraint=eastwest;fontSize=14;fontFamily=Times New Roman;" parent="LNlhiUmVujPS2ecl1WR9-121" vertex="1">
                    <mxGeometry y="150" width="450" height="8" as="geometry"/>
                </mxCell>
                <mxCell id="LNlhiUmVujPS2ecl1WR9-124" value="+ getMovedPawn(alliance: Alliance, destinationCoordinate: int): Pawn&#10;+ getMovedKnight(alliance: Alliance, destinationCoordinate: int): Knight&#10;+ getMovedBishop(alliance: Alliance, destinationCoordinate: int): Bishop&#10;+ getMovedRook(alliance: Alliance, destinationCoordinate: int): Rook&#10;+ getMovedQueen(alliance: Alliance, destinationCoordinate: int): Queen&#10;+ createAllPossibleMovedPawns(): Table&lt;Alliance, Integer, Pawn&gt;&#10;+ createAllPossibleMovedKnights(): Table&lt;Alliance, Integer, Knight&gt;&#10;+ createAllPossibleMovedBishops(): Table&lt;Alliance, Integer, Bishop&gt;&#10;+ createAllPossibleMovedRooks(): Table&lt;Alliance, Integer, Rook&gt;&#10;+ createAllPossibleMovedQueens(): Table&lt;Alliance, Integer, Queen&gt;" style="text;strokeColor=none;fillColor=none;align=left;verticalAlign=top;spacingLeft=4;spacingRight=4;overflow=hidden;rotatable=0;points=[[0,0.5],[1,0.5]];portConstraint=eastwest;fontSize=14;fontFamily=Times New Roman;" parent="LNlhiUmVujPS2ecl1WR9-121" vertex="1">
                    <mxGeometry y="158" width="450" height="192" as="geometry"/>
                </mxCell>
                <mxCell id="LNlhiUmVujPS2ecl1WR9-125" value="Bishop" style="swimlane;fontStyle=1;align=center;verticalAlign=top;childLayout=stackLayout;horizontal=1;startSize=26;horizontalStack=0;resizeParent=1;resizeParentMax=0;resizeLast=0;collapsible=1;marginBottom=0;fontSize=14;fontFamily=Times New Roman;" parent="1" vertex="1">
                    <mxGeometry x="935" y="-2980" width="560" height="230" as="geometry"/>
                </mxCell>
                <mxCell id="LNlhiUmVujPS2ecl1WR9-126" value="+ CANDIDATE_MOVE_COORDINATES: int[]" style="text;strokeColor=none;fillColor=none;align=left;verticalAlign=top;spacingLeft=4;spacingRight=4;overflow=hidden;rotatable=0;points=[[0,0.5],[1,0.5]];portConstraint=eastwest;fontSize=14;fontFamily=Times New Roman;" parent="LNlhiUmVujPS2ecl1WR9-125" vertex="1">
                    <mxGeometry y="26" width="560" height="26" as="geometry"/>
                </mxCell>
                <mxCell id="LNlhiUmVujPS2ecl1WR9-127" value="" style="line;strokeWidth=1;fillColor=none;align=left;verticalAlign=middle;spacingTop=-1;spacingLeft=3;spacingRight=3;rotatable=0;labelPosition=right;points=[];portConstraint=eastwest;fontSize=14;fontFamily=Times New Roman;" parent="LNlhiUmVujPS2ecl1WR9-125" vertex="1">
                    <mxGeometry y="52" width="560" height="8" as="geometry"/>
                </mxCell>
                <mxCell id="LNlhiUmVujPS2ecl1WR9-128" value="&lt;&lt;constructor&gt;&gt;&#10;+ Bishop(alliance: Alliance, piecePosition: int)&#10;+ Bishop(alliance: Alliance, piecePosition: int, isFirstMove: boolean)&#10;&lt;&lt;process&gt;&gt;&#10;+ calculateLegalMoves(board: Board): Collection&lt;Move&gt; &lt;&lt;override&gt;&gt;&#10;+ movePiece(move: Move): Bishop &lt;&lt;override&gt;&gt;&#10;+ toString(): String &lt;&lt;override&gt;&gt;&#10;+ isFirstColumnExclusion(currentCandidate: int, candidateDestinationCoordinate: int): boolean&#10;+ isEighthColumnExclusion(currentCandidate: int, candidateDestinationCoordinate: int): boolean" style="text;strokeColor=none;fillColor=none;align=left;verticalAlign=top;spacingLeft=4;spacingRight=4;overflow=hidden;rotatable=0;points=[[0,0.5],[1,0.5]];portConstraint=eastwest;fontSize=14;fontFamily=Times New Roman;" parent="LNlhiUmVujPS2ecl1WR9-125" vertex="1">
                    <mxGeometry y="60" width="560" height="170" as="geometry"/>
                </mxCell>
                <mxCell id="LNlhiUmVujPS2ecl1WR9-129" value="King" style="swimlane;fontStyle=1;align=center;verticalAlign=top;childLayout=stackLayout;horizontal=1;startSize=26;horizontalStack=0;resizeParent=1;resizeParentMax=0;resizeLast=0;collapsible=1;marginBottom=0;fontSize=14;fontFamily=Times New Roman;" parent="1" vertex="1">
                    <mxGeometry x="770" y="-2685" width="880" height="370" as="geometry"/>
                </mxCell>
                <mxCell id="LNlhiUmVujPS2ecl1WR9-130" value="+ CANDIDATE_MOVE_COORDINATES: int[]&#10;+ isCastled: boolean&#10;+ kingSideCastleCapable: boolean&#10;+ queenSideCastleCapable: boolean" style="text;strokeColor=none;fillColor=none;align=left;verticalAlign=top;spacingLeft=4;spacingRight=4;overflow=hidden;rotatable=0;points=[[0,0.5],[1,0.5]];portConstraint=eastwest;fontSize=14;fontFamily=Times New Roman;" parent="LNlhiUmVujPS2ecl1WR9-129" vertex="1">
                    <mxGeometry y="26" width="880" height="84" as="geometry"/>
                </mxCell>
                <mxCell id="LNlhiUmVujPS2ecl1WR9-131" value="" style="line;strokeWidth=1;fillColor=none;align=left;verticalAlign=middle;spacingTop=-1;spacingLeft=3;spacingRight=3;rotatable=0;labelPosition=right;points=[];portConstraint=eastwest;fontSize=14;fontFamily=Times New Roman;" parent="LNlhiUmVujPS2ecl1WR9-129" vertex="1">
                    <mxGeometry y="110" width="880" height="8" as="geometry"/>
                </mxCell>
                <mxCell id="LNlhiUmVujPS2ecl1WR9-132" value="&lt;&lt;constructor&gt;&gt;&#10;+ King(alliance: Alliance, piecePosition: int, kingSideCastleCapable: boolean, queenSideCastleCapable: boolean)&#10;+ King(alliance: Alliance, piecePosition: int, isFirstMove: boolean, isCastled: boolean, kingSideCastleCapable: boolean, queenSideCastleCapable: boolean)&#10;&lt;&lt;process&gt;&gt;&#10;+ isCastled(): boolean&#10;+ kingSideCastleCapable(): boolean&#10;+ queenSideCastleCapable(): boolean&#10;+ calculateLegalMoves(board: Board): Collection&lt;Move&gt; &lt;&lt;override&gt;&gt;&#10;+ movePiece(move: Move): King &lt;&lt;override&gt;&gt;&#10;+ toString(): String &lt;&lt;override&gt;&gt;&#10;+ hashCode(): int &lt;&lt;override&gt;&gt;&#10;+ equals(other: Object): boolean &lt;&lt;override&gt;&gt;&#10;+ isFirstColumnExclusion(currentCandidate: int, candidateDestinationCoordinate: int): boolean&#10;+ isEighthColumnExclusion(currentCandidate: int, candidateDestinationCoordinate: int): boolean" style="text;strokeColor=none;fillColor=none;align=left;verticalAlign=top;spacingLeft=4;spacingRight=4;overflow=hidden;rotatable=0;points=[[0,0.5],[1,0.5]];portConstraint=eastwest;fontSize=14;fontFamily=Times New Roman;" parent="LNlhiUmVujPS2ecl1WR9-129" vertex="1">
                    <mxGeometry y="118" width="880" height="252" as="geometry"/>
                </mxCell>
                <mxCell id="LNlhiUmVujPS2ecl1WR9-133" value="Knight" style="swimlane;fontStyle=1;align=center;verticalAlign=top;childLayout=stackLayout;horizontal=1;startSize=26;horizontalStack=0;resizeParent=1;resizeParentMax=0;resizeLast=0;collapsible=1;marginBottom=0;fontSize=14;fontFamily=Times New Roman;" parent="1" vertex="1">
                    <mxGeometry x="925" y="-2260" width="570" height="260" as="geometry"/>
                </mxCell>
                <mxCell id="LNlhiUmVujPS2ecl1WR9-134" value="+ CANDIDATE_MOVE_COORDINATES: int[]" style="text;strokeColor=none;fillColor=none;align=left;verticalAlign=top;spacingLeft=4;spacingRight=4;overflow=hidden;rotatable=0;points=[[0,0.5],[1,0.5]];portConstraint=eastwest;fontSize=14;fontFamily=Times New Roman;" parent="LNlhiUmVujPS2ecl1WR9-133" vertex="1">
                    <mxGeometry y="26" width="570" height="26" as="geometry"/>
                </mxCell>
                <mxCell id="LNlhiUmVujPS2ecl1WR9-135" value="" style="line;strokeWidth=1;fillColor=none;align=left;verticalAlign=middle;spacingTop=-1;spacingLeft=3;spacingRight=3;rotatable=0;labelPosition=right;points=[];portConstraint=eastwest;fontSize=14;fontFamily=Times New Roman;" parent="LNlhiUmVujPS2ecl1WR9-133" vertex="1">
                    <mxGeometry y="52" width="570" height="8" as="geometry"/>
                </mxCell>
                <mxCell id="LNlhiUmVujPS2ecl1WR9-136" value="&lt;&lt;constructor&gt;&gt;&#10;+ Knight(alliance: Alliance, piecePosition: int)&#10;+ Knight(alliance: Alliance, piecePosition: int, isFirstMove: boolean)&#10;&lt;&lt;process&gt;&gt;&#10;+ calculateLegalMoves(board: Board): Collection&lt;Move&gt; &lt;&lt;override&gt;&gt;&#10;+ movePiece(move: Move): Knight &lt;&lt;override&gt;&gt;&#10;+ toString(): String &lt;&lt;override&gt;&gt;&#10;+ isFirstColumnExclusion(currentCandidate: int, candidateDestinationCoordinate: int): boolean&#10;+ isSecondColumnExclusion(currentCandidate: int, candidateDestinationCoordinate: int): boolean&#10;+ isSeventhColumnExclusion(currentCandidate: int, candidateDestinationCoordinate: int): boolean&#10;+ isEighthColumnExclusion(currentCandidate: int, candidateDestinationCoordinate: int): boolean" style="text;strokeColor=none;fillColor=none;align=left;verticalAlign=top;spacingLeft=4;spacingRight=4;overflow=hidden;rotatable=0;points=[[0,0.5],[1,0.5]];portConstraint=eastwest;fontSize=14;fontFamily=Times New Roman;" parent="LNlhiUmVujPS2ecl1WR9-133" vertex="1">
                    <mxGeometry y="60" width="570" height="200" as="geometry"/>
                </mxCell>
                <mxCell id="LNlhiUmVujPS2ecl1WR9-137" value="Pawn" style="swimlane;fontStyle=1;align=center;verticalAlign=top;childLayout=stackLayout;horizontal=1;startSize=26;horizontalStack=0;resizeParent=1;resizeParentMax=0;resizeLast=0;collapsible=1;marginBottom=0;fontSize=14;fontFamily=Times New Roman;" parent="1" vertex="1">
                    <mxGeometry x="2550" y="-2960" width="530" height="190" as="geometry"/>
                </mxCell>
                <mxCell id="LNlhiUmVujPS2ecl1WR9-138" value="+ CANDIDATE_MOVE_COORDINATES: int[]" style="text;strokeColor=none;fillColor=none;align=left;verticalAlign=top;spacingLeft=4;spacingRight=4;overflow=hidden;rotatable=0;points=[[0,0.5],[1,0.5]];portConstraint=eastwest;fontSize=14;fontFamily=Times New Roman;" parent="LNlhiUmVujPS2ecl1WR9-137" vertex="1">
                    <mxGeometry y="26" width="530" height="26" as="geometry"/>
                </mxCell>
                <mxCell id="LNlhiUmVujPS2ecl1WR9-139" value="" style="line;strokeWidth=1;fillColor=none;align=left;verticalAlign=middle;spacingTop=-1;spacingLeft=3;spacingRight=3;rotatable=0;labelPosition=right;points=[];portConstraint=eastwest;fontSize=14;fontFamily=Times New Roman;" parent="LNlhiUmVujPS2ecl1WR9-137" vertex="1">
                    <mxGeometry y="52" width="530" height="8" as="geometry"/>
                </mxCell>
                <mxCell id="LNlhiUmVujPS2ecl1WR9-140" value="&lt;&lt;constructor&gt;&gt;&#10;+ Pawn(alliance: Alliance, piecePosition: int)&#10;+ Pawn(alliance: Alliance, piecePosition: int, isFirstMove: boolean)&#10;&lt;&lt;process&gt;&gt;&#10;+ calculateLegalMoves(board: Board): Collection&lt;Move&gt; &lt;&lt;override&gt;&gt;&#10;+ movePiece(move: Move): Pawn &lt;&lt;override&gt;&gt;&#10;+ toString(): String &lt;&lt;override&gt;&gt;&#10;" style="text;strokeColor=none;fillColor=none;align=left;verticalAlign=top;spacingLeft=4;spacingRight=4;overflow=hidden;rotatable=0;points=[[0,0.5],[1,0.5]];portConstraint=eastwest;fontSize=14;fontFamily=Times New Roman;" parent="LNlhiUmVujPS2ecl1WR9-137" vertex="1">
                    <mxGeometry y="60" width="530" height="130" as="geometry"/>
                </mxCell>
                <mxCell id="LNlhiUmVujPS2ecl1WR9-141" value="Queen" style="swimlane;fontStyle=1;align=center;verticalAlign=top;childLayout=stackLayout;horizontal=1;startSize=26;horizontalStack=0;resizeParent=1;resizeParentMax=0;resizeLast=0;collapsible=1;marginBottom=0;fontSize=14;fontFamily=Times New Roman;" parent="1" vertex="1">
                    <mxGeometry x="2530" y="-2630" width="570" height="230" as="geometry"/>
                </mxCell>
                <mxCell id="LNlhiUmVujPS2ecl1WR9-142" value="+ CANDIDATE_MOVE_COORDINATES: int[]" style="text;strokeColor=none;fillColor=none;align=left;verticalAlign=top;spacingLeft=4;spacingRight=4;overflow=hidden;rotatable=0;points=[[0,0.5],[1,0.5]];portConstraint=eastwest;fontSize=14;fontFamily=Times New Roman;" parent="LNlhiUmVujPS2ecl1WR9-141" vertex="1">
                    <mxGeometry y="26" width="570" height="26" as="geometry"/>
                </mxCell>
                <mxCell id="LNlhiUmVujPS2ecl1WR9-143" value="" style="line;strokeWidth=1;fillColor=none;align=left;verticalAlign=middle;spacingTop=-1;spacingLeft=3;spacingRight=3;rotatable=0;labelPosition=right;points=[];portConstraint=eastwest;fontSize=14;fontFamily=Times New Roman;" parent="LNlhiUmVujPS2ecl1WR9-141" vertex="1">
                    <mxGeometry y="52" width="570" height="8" as="geometry"/>
                </mxCell>
                <mxCell id="LNlhiUmVujPS2ecl1WR9-144" value="&lt;&lt;constructor&gt;&gt;&#10;+ Queen(alliance: Alliance, piecePosition: int)&#10;+ Queen(alliance: Alliance, piecePosition: int, isFirstMove: boolean)&#10;&lt;&lt;process&gt;&gt;&#10;+ calculateLegalMoves(board: Board): Collection&lt;Move&gt; &lt;&lt;override&gt;&gt;&#10;+ movePiece(move: Move): Queen &lt;&lt;override&gt;&gt;&#10;+ toString(): String &lt;&lt;override&gt;&gt;&#10;+ isFirstColumnExclusion(currentCandidate: int, candidateDestinationCoordinate: int): boolean&#10;+ isEighthColumnExclusion(currentCandidate: int, candidateDestinationCoordinate: int): boolean" style="text;strokeColor=none;fillColor=none;align=left;verticalAlign=top;spacingLeft=4;spacingRight=4;overflow=hidden;rotatable=0;points=[[0,0.5],[1,0.5]];portConstraint=eastwest;fontSize=14;fontFamily=Times New Roman;" parent="LNlhiUmVujPS2ecl1WR9-141" vertex="1">
                    <mxGeometry y="60" width="570" height="170" as="geometry"/>
                </mxCell>
                <mxCell id="LNlhiUmVujPS2ecl1WR9-145" value="Rook" style="swimlane;fontStyle=1;align=center;verticalAlign=top;childLayout=stackLayout;horizontal=1;startSize=26;horizontalStack=0;resizeParent=1;resizeParentMax=0;resizeLast=0;collapsible=1;marginBottom=0;fontSize=14;fontFamily=Times New Roman;" parent="1" vertex="1">
                    <mxGeometry x="2550" y="-2240" width="530" height="210" as="geometry"/>
                </mxCell>
                <mxCell id="LNlhiUmVujPS2ecl1WR9-146" value="+ CANDIDATE_MOVE_COORDINATES: int[]" style="text;strokeColor=none;fillColor=none;align=left;verticalAlign=top;spacingLeft=4;spacingRight=4;overflow=hidden;rotatable=0;points=[[0,0.5],[1,0.5]];portConstraint=eastwest;fontSize=14;fontFamily=Times New Roman;" parent="LNlhiUmVujPS2ecl1WR9-145" vertex="1">
                    <mxGeometry y="26" width="530" height="26" as="geometry"/>
                </mxCell>
                <mxCell id="LNlhiUmVujPS2ecl1WR9-147" value="" style="line;strokeWidth=1;fillColor=none;align=left;verticalAlign=middle;spacingTop=-1;spacingLeft=3;spacingRight=3;rotatable=0;labelPosition=right;points=[];portConstraint=eastwest;fontSize=14;fontFamily=Times New Roman;" parent="LNlhiUmVujPS2ecl1WR9-145" vertex="1">
                    <mxGeometry y="52" width="530" height="8" as="geometry"/>
                </mxCell>
                <mxCell id="LNlhiUmVujPS2ecl1WR9-148" value="&lt;&lt;constructor&gt;&gt;&#10;+ Rook(alliance: Alliance, piecePosition: int)&#10;+ Rook(alliance: Alliance, piecePosition: int, isFirstMove: boolean)&#10;&lt;&lt;process&gt;&gt;&#10;+ calculateLegalMoves(board: Board): Collection&lt;Move&gt; &lt;&lt;override&gt;&gt;&#10;+ movePiece(move: Move): Rook &lt;&lt;override&gt;&gt;&#10;+ toString(): String &lt;&lt;override&gt;&gt;&#10;+ isColumnExclusion(currentCandidate: int, candidateDestinationCoordinate: int): boolean&#10;" style="text;strokeColor=none;fillColor=none;align=left;verticalAlign=top;spacingLeft=4;spacingRight=4;overflow=hidden;rotatable=0;points=[[0,0.5],[1,0.5]];portConstraint=eastwest;fontSize=14;fontFamily=Times New Roman;" parent="LNlhiUmVujPS2ecl1WR9-145" vertex="1">
                    <mxGeometry y="60" width="530" height="150" as="geometry"/>
                </mxCell>
                <mxCell id="LNlhiUmVujPS2ecl1WR9-149" value="Extends" style="endArrow=block;endSize=16;endFill=0;html=1;entryX=0;entryY=0.5;entryDx=0;entryDy=0;fontSize=14;fontFamily=Times New Roman;" parent="1" source="LNlhiUmVujPS2ecl1WR9-133" target="LNlhiUmVujPS2ecl1WR9-115" edge="1">
                    <mxGeometry width="160" relative="1" as="geometry">
                        <mxPoint x="2070" y="-2270" as="sourcePoint"/>
                        <mxPoint x="2230" y="-2270" as="targetPoint"/>
                        <Array as="points">
                            <mxPoint x="1690" y="-2125"/>
                            <mxPoint x="1690" y="-2446"/>
                        </Array>
                    </mxGeometry>
                </mxCell>
                <mxCell id="LNlhiUmVujPS2ecl1WR9-150" value="Extends" style="endArrow=block;endSize=16;endFill=0;html=1;fontSize=14;fontFamily=Times New Roman;" parent="1" source="LNlhiUmVujPS2ecl1WR9-129" target="LNlhiUmVujPS2ecl1WR9-112" edge="1">
                    <mxGeometry width="160" relative="1" as="geometry">
                        <mxPoint x="2070" y="-2510" as="sourcePoint"/>
                        <mxPoint x="2230" y="-2510" as="targetPoint"/>
                    </mxGeometry>
                </mxCell>
                <mxCell id="LNlhiUmVujPS2ecl1WR9-151" value="Extends" style="endArrow=block;endSize=16;endFill=0;html=1;entryX=0;entryY=0.5;entryDx=0;entryDy=0;fontSize=14;fontFamily=Times New Roman;" parent="1" source="LNlhiUmVujPS2ecl1WR9-125" target="LNlhiUmVujPS2ecl1WR9-113" edge="1">
                    <mxGeometry width="160" relative="1" as="geometry">
                        <mxPoint x="2070" y="-2510" as="sourcePoint"/>
                        <mxPoint x="2230" y="-2510" as="targetPoint"/>
                        <Array as="points">
                            <mxPoint x="1690" y="-2860"/>
                            <mxPoint x="1690" y="-2585"/>
                        </Array>
                    </mxGeometry>
                </mxCell>
                <mxCell id="LNlhiUmVujPS2ecl1WR9-153" value="Extends" style="endArrow=block;endSize=16;endFill=0;html=1;entryX=1;entryY=0.5;entryDx=0;entryDy=0;fontSize=14;fontFamily=Times New Roman;" parent="1" source="LNlhiUmVujPS2ecl1WR9-145" target="LNlhiUmVujPS2ecl1WR9-115" edge="1">
                    <mxGeometry width="160" relative="1" as="geometry">
                        <mxPoint x="2030" y="-2270" as="sourcePoint"/>
                        <mxPoint x="2190" y="-2270" as="targetPoint"/>
                        <Array as="points">
                            <mxPoint x="2390" y="-2145"/>
                            <mxPoint x="2390" y="-2446"/>
                        </Array>
                    </mxGeometry>
                </mxCell>
                <mxCell id="LNlhiUmVujPS2ecl1WR9-154" value="Extends" style="endArrow=block;endSize=16;endFill=0;html=1;fontSize=14;fontFamily=Times New Roman;" parent="1" source="LNlhiUmVujPS2ecl1WR9-141" target="LNlhiUmVujPS2ecl1WR9-112" edge="1">
                    <mxGeometry width="160" relative="1" as="geometry">
                        <mxPoint x="2030" y="-2510" as="sourcePoint"/>
                        <mxPoint x="2190" y="-2510" as="targetPoint"/>
                    </mxGeometry>
                </mxCell>
                <mxCell id="LNlhiUmVujPS2ecl1WR9-155" value="Extends" style="endArrow=block;endSize=16;endFill=0;html=1;entryX=1;entryY=0.5;entryDx=0;entryDy=0;fontSize=14;fontFamily=Times New Roman;" parent="1" source="LNlhiUmVujPS2ecl1WR9-137" target="LNlhiUmVujPS2ecl1WR9-113" edge="1">
                    <mxGeometry width="160" relative="1" as="geometry">
                        <mxPoint x="2030" y="-2510" as="sourcePoint"/>
                        <mxPoint x="2190" y="-2510" as="targetPoint"/>
                        <Array as="points">
                            <mxPoint x="2380" y="-2875"/>
                            <mxPoint x="2380" y="-2585"/>
                        </Array>
                    </mxGeometry>
                </mxCell>
                <mxCell id="R5cSlF86ASt4ZV3UKbgb-1" value="" style="shape=folder;fontStyle=1;spacingTop=10;tabWidth=150;tabHeight=40;tabPosition=left;html=1;fontSize=14;fontFamily=Times New Roman;" parent="1" vertex="1">
                    <mxGeometry x="3190" y="-3050" width="1500" height="1380" as="geometry"/>
                </mxCell>
                <mxCell id="R5cSlF86ASt4ZV3UKbgb-2" value="&lt;b&gt;&lt;font style=&quot;font-size: 20px&quot;&gt;player&lt;/font&gt;&lt;/b&gt;" style="text;html=1;strokeColor=none;fillColor=none;align=center;verticalAlign=middle;whiteSpace=wrap;rounded=0;fontSize=14;fontFamily=Times New Roman;" parent="1" vertex="1">
                    <mxGeometry x="3230" y="-3050" width="80" height="40" as="geometry"/>
                </mxCell>
                <mxCell id="R5cSlF86ASt4ZV3UKbgb-3" value="&lt;&lt;abstract&gt;&gt;&#10;Player" style="swimlane;fontStyle=1;align=center;verticalAlign=top;childLayout=stackLayout;horizontal=1;startSize=40;horizontalStack=0;resizeParent=1;resizeParentMax=0;resizeLast=0;collapsible=1;marginBottom=0;fontSize=14;fontFamily=Times New Roman;" parent="1" vertex="1">
                    <mxGeometry x="3595" y="-2560" width="740" height="500" as="geometry"/>
                </mxCell>
                <mxCell id="R5cSlF86ASt4ZV3UKbgb-4" value="+ board: Board&#10;+ playerKing: King&#10;+ legalMoves: Collection&lt;Move&gt;&#10;+ isInCheck: boolean" style="text;strokeColor=none;fillColor=none;align=left;verticalAlign=top;spacingLeft=4;spacingRight=4;overflow=hidden;rotatable=0;points=[[0,0.5],[1,0.5]];portConstraint=eastwest;fontSize=14;fontFamily=Times New Roman;" parent="R5cSlF86ASt4ZV3UKbgb-3" vertex="1">
                    <mxGeometry y="40" width="740" height="80" as="geometry"/>
                </mxCell>
                <mxCell id="R5cSlF86ASt4ZV3UKbgb-5" value="" style="line;strokeWidth=1;fillColor=none;align=left;verticalAlign=middle;spacingTop=-1;spacingLeft=3;spacingRight=3;rotatable=0;labelPosition=right;points=[];portConstraint=eastwest;fontSize=14;fontFamily=Times New Roman;" parent="R5cSlF86ASt4ZV3UKbgb-3" vertex="1">
                    <mxGeometry y="120" width="740" height="8" as="geometry"/>
                </mxCell>
                <mxCell id="R5cSlF86ASt4ZV3UKbgb-6" value="&lt;&lt;constructor&gt;&gt;&#10;+ Player(board: Board, playerLegals: Collection&lt;Move&gt;, opponentLegals: Collection&lt;Move&gt;)&#10;&lt;&lt;process&gt;&gt;&#10;+ isInCheck(): boolean&#10;+ isInCheckMate(): boolean&#10;+ isInStaleMate(): boolean&#10;+ isCastled(): boolean&#10;+ isKingSideCastleCapable(): boolean&#10;+ isQueenSideCastleCapable(): boolean&#10;+ getPlayerKing(): King&#10;+ establishKing(): King&#10;+ hasEscapeMoves(): boolean&#10;+ getLegalMoves(): Collection&lt;Move&gt;&#10;+ calculateAttacksOnTile(): Collection&lt;Move&gt;&#10;+ makeMove(move: Move): MoveTransition&#10;+ unMakeMove(move: Move): MoveTransition&#10;+ hasCastleOpportunities(): boolean&#10;+ getActivePieces(): Collection&lt;Piece&gt; &lt;&lt;abstract&gt;&gt;&#10;+ getAlliance(): Alliance &lt;&lt;abstract&gt;&gt;&#10;+ getOpponent(): Player &lt;&lt;abstract&gt;&gt;&#10;+ calculateKingCastles(playerLegals: Collection&lt;Move&gt;, opponentLegals: Collection&lt;Move&gt;): Collection&lt;Move&gt; &lt;&lt;abstract&gt;&gt;" style="text;strokeColor=none;fillColor=none;align=left;verticalAlign=top;spacingLeft=4;spacingRight=4;overflow=hidden;rotatable=0;points=[[0,0.5],[1,0.5]];portConstraint=eastwest;fontSize=14;fontFamily=Times New Roman;" parent="R5cSlF86ASt4ZV3UKbgb-3" vertex="1">
                    <mxGeometry y="128" width="740" height="372" as="geometry"/>
                </mxCell>
                <mxCell id="R5cSlF86ASt4ZV3UKbgb-7" value="BlackPlayer" style="swimlane;fontStyle=1;align=center;verticalAlign=top;childLayout=stackLayout;horizontal=1;startSize=26;horizontalStack=0;resizeParent=1;resizeParentMax=0;resizeLast=0;collapsible=1;marginBottom=0;fontSize=14;fontFamily=Times New Roman;" parent="1" vertex="1">
                    <mxGeometry x="3590" y="-2860" width="750" height="180" as="geometry"/>
                </mxCell>
                <mxCell id="R5cSlF86ASt4ZV3UKbgb-9" value="" style="line;strokeWidth=1;fillColor=none;align=left;verticalAlign=middle;spacingTop=-1;spacingLeft=3;spacingRight=3;rotatable=0;labelPosition=right;points=[];portConstraint=eastwest;fontSize=14;fontFamily=Times New Roman;" parent="R5cSlF86ASt4ZV3UKbgb-7" vertex="1">
                    <mxGeometry y="26" width="750" height="8" as="geometry"/>
                </mxCell>
                <mxCell id="R5cSlF86ASt4ZV3UKbgb-10" value="&lt;&lt;constructor&gt;&gt;&#10;+ BlackPlayer(board: Board, whiteStandardLegals: Collection&lt;Move&gt;, blackStandardLegals: Collection&lt;Move&gt;)&#10;&lt;&lt;process&gt;&gt;&#10;+ calculateKingCastles(playerLegals: Collection&lt;Move&gt;, opponentLegals: Collection&lt;Move&gt;): Collection&lt;Move&gt; &lt;&lt;override&gt;&gt;&#10;+ getActivePieces(): Collection&lt;Piece&gt; &lt;&lt;override&gt;&gt;&#10;+ getAlliance(): Alliance &lt;&lt;override&gt;&gt;&#10;+ getOpponent(): Player &lt;&lt;override&gt;&gt;&#10;+ toString(): String &lt;&lt;override&gt;&gt;&#10;" style="text;strokeColor=none;fillColor=none;align=left;verticalAlign=top;spacingLeft=4;spacingRight=4;overflow=hidden;rotatable=0;points=[[0,0.5],[1,0.5]];portConstraint=eastwest;fontSize=14;fontFamily=Times New Roman;" parent="R5cSlF86ASt4ZV3UKbgb-7" vertex="1">
                    <mxGeometry y="34" width="750" height="146" as="geometry"/>
                </mxCell>
                <mxCell id="R5cSlF86ASt4ZV3UKbgb-11" value="WhitePlayer" style="swimlane;fontStyle=1;align=center;verticalAlign=top;childLayout=stackLayout;horizontal=1;startSize=26;horizontalStack=0;resizeParent=1;resizeParentMax=0;resizeLast=0;collapsible=1;marginBottom=0;fontSize=14;fontFamily=Times New Roman;" parent="1" vertex="1">
                    <mxGeometry x="3595" y="-1955" width="740" height="180" as="geometry"/>
                </mxCell>
                <mxCell id="R5cSlF86ASt4ZV3UKbgb-12" value="" style="line;strokeWidth=1;fillColor=none;align=left;verticalAlign=middle;spacingTop=-1;spacingLeft=3;spacingRight=3;rotatable=0;labelPosition=right;points=[];portConstraint=eastwest;fontSize=14;fontFamily=Times New Roman;" parent="R5cSlF86ASt4ZV3UKbgb-11" vertex="1">
                    <mxGeometry y="26" width="740" height="8" as="geometry"/>
                </mxCell>
                <mxCell id="R5cSlF86ASt4ZV3UKbgb-13" value="&lt;&lt;constructor&gt;&gt;&#10;+ WhitePlayer(board: Board, whiteStandardLegals: Collection&lt;Move&gt;, blackStandardLegals: Collection&lt;Move&gt;)&#10;&lt;&lt;process&gt;&gt;&#10;+ calculateKingCastles(playerLegals: Collection&lt;Move&gt;, opponentLegals: Collection&lt;Move&gt;): Collection&lt;Move&gt; &lt;&lt;override&gt;&gt;&#10;+ getActivePieces(): Collection&lt;Piece&gt; &lt;&lt;override&gt;&gt;&#10;+ getAlliance(): Alliance &lt;&lt;override&gt;&gt;&#10;+ getOpponent(): Player &lt;&lt;override&gt;&gt;&#10;+ toString(): String &lt;&lt;override&gt;&gt;&#10;" style="text;strokeColor=none;fillColor=none;align=left;verticalAlign=top;spacingLeft=4;spacingRight=4;overflow=hidden;rotatable=0;points=[[0,0.5],[1,0.5]];portConstraint=eastwest;fontSize=14;fontFamily=Times New Roman;" parent="R5cSlF86ASt4ZV3UKbgb-11" vertex="1">
                    <mxGeometry y="34" width="740" height="146" as="geometry"/>
                </mxCell>
                <mxCell id="R5cSlF86ASt4ZV3UKbgb-14" value="Extends" style="endArrow=block;endSize=16;endFill=0;html=1;fontSize=14;fontFamily=Times New Roman;" parent="1" source="R5cSlF86ASt4ZV3UKbgb-7" target="R5cSlF86ASt4ZV3UKbgb-3" edge="1">
                    <mxGeometry width="160" relative="1" as="geometry">
                        <mxPoint x="4210" y="-2330" as="sourcePoint"/>
                        <mxPoint x="4370" y="-2330" as="targetPoint"/>
                    </mxGeometry>
                </mxCell>
                <mxCell id="R5cSlF86ASt4ZV3UKbgb-15" value="Extends" style="endArrow=block;endSize=16;endFill=0;html=1;fontSize=14;fontFamily=Times New Roman;" parent="1" source="R5cSlF86ASt4ZV3UKbgb-11" target="R5cSlF86ASt4ZV3UKbgb-3" edge="1">
                    <mxGeometry width="160" relative="1" as="geometry">
                        <mxPoint x="4210" y="-2330" as="sourcePoint"/>
                        <mxPoint x="4370" y="-2330" as="targetPoint"/>
                    </mxGeometry>
                </mxCell>
                <mxCell id="R5cSlF86ASt4ZV3UKbgb-16" value="&lt;b&gt;&lt;font style=&quot;font-size: 20px&quot;&gt;engine&lt;/font&gt;&lt;/b&gt;" style="text;html=1;strokeColor=none;fillColor=none;align=center;verticalAlign=middle;whiteSpace=wrap;rounded=0;fontSize=14;fontFamily=Times New Roman;" parent="1" vertex="1">
                    <mxGeometry x="-2410" y="-3150" width="170" height="30" as="geometry"/>
                </mxCell>
                <mxCell id="R5cSlF86ASt4ZV3UKbgb-18" value="&lt;&lt;enumeration&gt;&gt;&#10;Alliance" style="swimlane;fontStyle=1;align=center;verticalAlign=top;childLayout=stackLayout;horizontal=1;startSize=40;horizontalStack=0;resizeParent=1;resizeParentMax=0;resizeLast=0;collapsible=1;marginBottom=0;fontSize=14;fontFamily=Times New Roman;" parent="1" vertex="1">
                    <mxGeometry x="1040" y="-1610" width="510" height="240" as="geometry"/>
                </mxCell>
                <mxCell id="R5cSlF86ASt4ZV3UKbgb-19" value="+ WHITE&#10;+ BLACK&#10;" style="text;strokeColor=none;fillColor=none;align=left;verticalAlign=top;spacingLeft=4;spacingRight=4;overflow=hidden;rotatable=0;points=[[0,0.5],[1,0.5]];portConstraint=eastwest;fontSize=14;fontFamily=Times New Roman;" parent="R5cSlF86ASt4ZV3UKbgb-18" vertex="1">
                    <mxGeometry y="40" width="510" height="40" as="geometry"/>
                </mxCell>
                <mxCell id="R5cSlF86ASt4ZV3UKbgb-20" value="" style="line;strokeWidth=1;fillColor=none;align=left;verticalAlign=middle;spacingTop=-1;spacingLeft=3;spacingRight=3;rotatable=0;labelPosition=right;points=[];portConstraint=eastwest;fontSize=14;fontFamily=Times New Roman;" parent="R5cSlF86ASt4ZV3UKbgb-18" vertex="1">
                    <mxGeometry y="80" width="510" height="8" as="geometry"/>
                </mxCell>
                <mxCell id="R5cSlF86ASt4ZV3UKbgb-21" value="+ getDirection(): int&#10;+ getOppositeDirection(): int&#10;+ isWhite(): boolean&#10;+ isBlack(): boolean&#10;+ isPawnPromotionSquare(): boolean&#10;+ choosePlayerByAlliance(whitePlayer: WhitePlayer, blackPlayer: BlackPlayer): Player&#10;+ UP_DIRECTION: int&#10;+ DOWN_DIRECTION: int" style="text;strokeColor=none;fillColor=none;align=left;verticalAlign=top;spacingLeft=4;spacingRight=4;overflow=hidden;rotatable=0;points=[[0,0.5],[1,0.5]];portConstraint=eastwest;fontSize=14;fontFamily=Times New Roman;" parent="R5cSlF86ASt4ZV3UKbgb-18" vertex="1">
                    <mxGeometry y="88" width="510" height="152" as="geometry"/>
                </mxCell>
                <mxCell id="R5cSlF86ASt4ZV3UKbgb-22" value="" style="shape=folder;fontStyle=1;spacingTop=10;tabWidth=230;tabHeight=70;tabPosition=left;html=1;fontSize=14;fontFamily=Times New Roman;" parent="1" vertex="1">
                    <mxGeometry x="-2432.5" y="-1220" width="2225" height="1120" as="geometry"/>
                </mxCell>
                <mxCell id="R5cSlF86ASt4ZV3UKbgb-23" value="&lt;b&gt;&lt;font style=&quot;font-size: 25px&quot;&gt;gui&lt;/font&gt;&lt;/b&gt;" style="text;html=1;strokeColor=none;fillColor=none;align=center;verticalAlign=middle;whiteSpace=wrap;rounded=0;fontSize=14;fontFamily=Times New Roman;" parent="1" vertex="1">
                    <mxGeometry x="-2420" y="-1210" width="210" height="50" as="geometry"/>
                </mxCell>
                <mxCell id="R5cSlF86ASt4ZV3UKbgb-25" value="Table" style="swimlane;fontStyle=1;align=center;verticalAlign=top;childLayout=stackLayout;horizontal=1;startSize=26;horizontalStack=0;resizeParent=1;resizeParentMax=0;resizeLast=0;collapsible=1;marginBottom=0;fontSize=14;fontFamily=Times New Roman;" parent="1" vertex="1">
                    <mxGeometry x="-2370" y="-1080" width="320" height="670" as="geometry"/>
                </mxCell>
                <mxCell id="R5cSlF86ASt4ZV3UKbgb-26" value="+ gameFrame: JFrame&#10;+ gameHistoryPanel: GameHistoryPanel&#10;+ takenPiecesPanel: TakenPiecesPanel&#10;+ boardPanel: BoardPanel&#10;+ moveLog: MoveLog&#10;+ chessBoard: Board&#10;+ sourceTile: Piece&#10;+ humanMovedPiece: Piece&#10;+ boardDirection: BoardDirection&#10;+ pieceIconPath: String&#10;+ lightTileColor: Color&#10;+ darkTileColor: Color&#10;+ OUTER_FRAME_DIMENSION: Dimension&#10;+ BOARD_PANEL_DIMENSION: Dimension&#10;+ TILE_PANEL_DIMENSION: Dimension&#10;+ INSTANCE: Table" style="text;strokeColor=none;fillColor=none;align=left;verticalAlign=top;spacingLeft=4;spacingRight=4;overflow=hidden;rotatable=0;points=[[0,0.5],[1,0.5]];portConstraint=eastwest;fontSize=14;fontFamily=Times New Roman;" parent="R5cSlF86ASt4ZV3UKbgb-25" vertex="1">
                    <mxGeometry y="26" width="320" height="284" as="geometry"/>
                </mxCell>
                <mxCell id="R5cSlF86ASt4ZV3UKbgb-27" value="" style="line;strokeWidth=1;fillColor=none;align=left;verticalAlign=middle;spacingTop=-1;spacingLeft=3;spacingRight=3;rotatable=0;labelPosition=right;points=[];portConstraint=eastwest;fontSize=14;fontFamily=Times New Roman;" parent="R5cSlF86ASt4ZV3UKbgb-25" vertex="1">
                    <mxGeometry y="310" width="320" height="8" as="geometry"/>
                </mxCell>
                <mxCell id="R5cSlF86ASt4ZV3UKbgb-28" value="&lt;&lt;constructor&gt;&gt;&#10;+ Table()&#10;&lt;&lt;process&gt;&gt;&#10;+ get(): Table&#10;+ getGameFrame(): JFrame&#10;+ getGameBoard(): Board&#10;+ getMoveLog(): MoveLog&#10;+ getBoardPanel(): BoardPanel&#10;+ getGameHistoryPanel(): GameHistoryPanel&#10;+ getTakenPiecesPanel(): TakenPiecesPanel&#10;+ show(): void&#10;+ populateMenuBar(tableMenuBar: JMenuBar): void&#10;+ center(frame: JFrame): void&#10;+ createFileMenu(): JMenu&#10;+ createOptionsMenu(): JMenu&#10;+ createPreferencesMenu(): JMenu&#10;+ playerInfo(player: Player): String&#10;+ undoAllMoves(): void&#10;+ undoLastMove(): void&#10;+ moveMadeUpdate(playerType: PlayerType): void" style="text;strokeColor=none;fillColor=none;align=left;verticalAlign=top;spacingLeft=4;spacingRight=4;overflow=hidden;rotatable=0;points=[[0,0.5],[1,0.5]];portConstraint=eastwest;fontSize=14;fontFamily=Times New Roman;" parent="R5cSlF86ASt4ZV3UKbgb-25" vertex="1">
                    <mxGeometry y="318" width="320" height="352" as="geometry"/>
                </mxCell>
                <mxCell id="R5cSlF86ASt4ZV3UKbgb-29" value="&lt;&lt;enumeration&gt;&gt;&#10;PlayerType" style="swimlane;fontStyle=1;align=center;verticalAlign=top;childLayout=stackLayout;horizontal=1;startSize=40;horizontalStack=0;resizeParent=1;resizeParentMax=0;resizeLast=0;collapsible=1;marginBottom=0;fontSize=14;fontFamily=Times New Roman;" parent="1" vertex="1">
                    <mxGeometry x="-2010" y="-530" width="160" height="74" as="geometry"/>
                </mxCell>
                <mxCell id="R5cSlF86ASt4ZV3UKbgb-30" value="+ HUMAN" style="text;strokeColor=none;fillColor=none;align=left;verticalAlign=top;spacingLeft=4;spacingRight=4;overflow=hidden;rotatable=0;points=[[0,0.5],[1,0.5]];portConstraint=eastwest;fontSize=14;fontFamily=Times New Roman;" parent="R5cSlF86ASt4ZV3UKbgb-29" vertex="1">
                    <mxGeometry y="40" width="160" height="26" as="geometry"/>
                </mxCell>
                <mxCell id="R5cSlF86ASt4ZV3UKbgb-31" value="" style="line;strokeWidth=1;fillColor=none;align=left;verticalAlign=middle;spacingTop=-1;spacingLeft=3;spacingRight=3;rotatable=0;labelPosition=right;points=[];portConstraint=eastwest;fontSize=14;fontFamily=Times New Roman;" parent="R5cSlF86ASt4ZV3UKbgb-29" vertex="1">
                    <mxGeometry y="66" width="160" height="8" as="geometry"/>
                </mxCell>
                <mxCell id="R5cSlF86ASt4ZV3UKbgb-33" value="TableGameWatcher" style="swimlane;fontStyle=1;align=center;verticalAlign=top;childLayout=stackLayout;horizontal=1;startSize=26;horizontalStack=0;resizeParent=1;resizeParentMax=0;resizeLast=0;collapsible=1;marginBottom=0;fontSize=14;fontFamily=Times New Roman;" parent="1" vertex="1">
                    <mxGeometry x="-1890" y="-660" width="250" height="70" as="geometry"/>
                </mxCell>
                <mxCell id="R5cSlF86ASt4ZV3UKbgb-35" value="" style="line;strokeWidth=1;fillColor=none;align=left;verticalAlign=middle;spacingTop=-1;spacingLeft=3;spacingRight=3;rotatable=0;labelPosition=right;points=[];portConstraint=eastwest;fontSize=14;fontFamily=Times New Roman;" parent="R5cSlF86ASt4ZV3UKbgb-33" vertex="1">
                    <mxGeometry y="26" width="250" height="8" as="geometry"/>
                </mxCell>
                <mxCell id="R5cSlF86ASt4ZV3UKbgb-36" value="+ update(o: Observable, arg: Object): void" style="text;strokeColor=none;fillColor=none;align=left;verticalAlign=top;spacingLeft=4;spacingRight=4;overflow=hidden;rotatable=0;points=[[0,0.5],[1,0.5]];portConstraint=eastwest;fontSize=14;fontFamily=Times New Roman;" parent="R5cSlF86ASt4ZV3UKbgb-33" vertex="1">
                    <mxGeometry y="34" width="250" height="36" as="geometry"/>
                </mxCell>
                <mxCell id="R5cSlF86ASt4ZV3UKbgb-37" value="BoardPanel" style="swimlane;fontStyle=1;align=center;verticalAlign=top;childLayout=stackLayout;horizontal=1;startSize=26;horizontalStack=0;resizeParent=1;resizeParentMax=0;resizeLast=0;collapsible=1;marginBottom=0;fontSize=14;fontFamily=Times New Roman;" parent="1" vertex="1">
                    <mxGeometry x="-1790" y="-550" width="200" height="150" as="geometry"/>
                </mxCell>
                <mxCell id="R5cSlF86ASt4ZV3UKbgb-38" value="+ boardTiles: List&lt;TilePanel&gt;" style="text;strokeColor=none;fillColor=none;align=left;verticalAlign=top;spacingLeft=4;spacingRight=4;overflow=hidden;rotatable=0;points=[[0,0.5],[1,0.5]];portConstraint=eastwest;fontSize=14;fontFamily=Times New Roman;" parent="R5cSlF86ASt4ZV3UKbgb-37" vertex="1">
                    <mxGeometry y="26" width="200" height="26" as="geometry"/>
                </mxCell>
                <mxCell id="R5cSlF86ASt4ZV3UKbgb-39" value="" style="line;strokeWidth=1;fillColor=none;align=left;verticalAlign=middle;spacingTop=-1;spacingLeft=3;spacingRight=3;rotatable=0;labelPosition=right;points=[];portConstraint=eastwest;fontSize=14;fontFamily=Times New Roman;" parent="R5cSlF86ASt4ZV3UKbgb-37" vertex="1">
                    <mxGeometry y="52" width="200" height="8" as="geometry"/>
                </mxCell>
                <mxCell id="R5cSlF86ASt4ZV3UKbgb-40" value="&lt;&lt;constructor&gt;&gt;&#10;+ BoardPanel()&#10;&lt;&lt;process&gt;&gt;&#10;+ drawBoard(board: Board): void" style="text;strokeColor=none;fillColor=none;align=left;verticalAlign=top;spacingLeft=4;spacingRight=4;overflow=hidden;rotatable=0;points=[[0,0.5],[1,0.5]];portConstraint=eastwest;fontSize=14;fontFamily=Times New Roman;" parent="R5cSlF86ASt4ZV3UKbgb-37" vertex="1">
                    <mxGeometry y="60" width="200" height="90" as="geometry"/>
                </mxCell>
                <mxCell id="R5cSlF86ASt4ZV3UKbgb-41" value="&lt;&lt;enumeration&gt;&gt;&#10;BoardDirection" style="swimlane;fontStyle=1;align=center;verticalAlign=top;childLayout=stackLayout;horizontal=1;startSize=40;horizontalStack=0;resizeParent=1;resizeParentMax=0;resizeLast=0;collapsible=1;marginBottom=0;fontSize=14;fontFamily=Times New Roman;" parent="1" vertex="1">
                    <mxGeometry x="-1970" y="-820" width="420" height="140" as="geometry"/>
                </mxCell>
                <mxCell id="R5cSlF86ASt4ZV3UKbgb-42" value="+ NORMAL&#10;+ FLIPPED" style="text;strokeColor=none;fillColor=none;align=left;verticalAlign=top;spacingLeft=4;spacingRight=4;overflow=hidden;rotatable=0;points=[[0,0.5],[1,0.5]];portConstraint=eastwest;fontSize=14;fontFamily=Times New Roman;" parent="R5cSlF86ASt4ZV3UKbgb-41" vertex="1">
                    <mxGeometry y="40" width="420" height="40" as="geometry"/>
                </mxCell>
                <mxCell id="R5cSlF86ASt4ZV3UKbgb-43" value="" style="line;strokeWidth=1;fillColor=none;align=left;verticalAlign=middle;spacingTop=-1;spacingLeft=3;spacingRight=3;rotatable=0;labelPosition=right;points=[];portConstraint=eastwest;fontSize=14;fontFamily=Times New Roman;" parent="R5cSlF86ASt4ZV3UKbgb-41" vertex="1">
                    <mxGeometry y="80" width="420" height="8" as="geometry"/>
                </mxCell>
                <mxCell id="R5cSlF86ASt4ZV3UKbgb-44" value="+ traverse(boardTiles: List&lt;TilePanel&gt;): List&lt;TilePanel&gt; &lt;&lt;abstract&gt;&gt;&#10;+ opposite(): BoardDirection &lt;&lt;abstract&gt;&gt;" style="text;strokeColor=none;fillColor=none;align=left;verticalAlign=top;spacingLeft=4;spacingRight=4;overflow=hidden;rotatable=0;points=[[0,0.5],[1,0.5]];portConstraint=eastwest;fontSize=14;fontFamily=Times New Roman;" parent="R5cSlF86ASt4ZV3UKbgb-41" vertex="1">
                    <mxGeometry y="88" width="420" height="52" as="geometry"/>
                </mxCell>
                <mxCell id="R5cSlF86ASt4ZV3UKbgb-45" value="MoveLog" style="swimlane;fontStyle=1;align=center;verticalAlign=top;childLayout=stackLayout;horizontal=1;startSize=26;horizontalStack=0;resizeParent=1;resizeParentMax=0;resizeLast=0;collapsible=1;marginBottom=0;fontSize=14;fontFamily=Times New Roman;" parent="1" vertex="1">
                    <mxGeometry x="-1735" y="-1080" width="230" height="230" as="geometry"/>
                </mxCell>
                <mxCell id="R5cSlF86ASt4ZV3UKbgb-46" value="+ moves: List&lt;Move&gt;" style="text;strokeColor=none;fillColor=none;align=left;verticalAlign=top;spacingLeft=4;spacingRight=4;overflow=hidden;rotatable=0;points=[[0,0.5],[1,0.5]];portConstraint=eastwest;fontSize=14;fontFamily=Times New Roman;" parent="R5cSlF86ASt4ZV3UKbgb-45" vertex="1">
                    <mxGeometry y="26" width="230" height="26" as="geometry"/>
                </mxCell>
                <mxCell id="R5cSlF86ASt4ZV3UKbgb-47" value="" style="line;strokeWidth=1;fillColor=none;align=left;verticalAlign=middle;spacingTop=-1;spacingLeft=3;spacingRight=3;rotatable=0;labelPosition=right;points=[];portConstraint=eastwest;fontSize=14;fontFamily=Times New Roman;" parent="R5cSlF86ASt4ZV3UKbgb-45" vertex="1">
                    <mxGeometry y="52" width="230" height="8" as="geometry"/>
                </mxCell>
                <mxCell id="R5cSlF86ASt4ZV3UKbgb-48" value="&lt;&lt;constructor&gt;&gt;&#10;+ MoveLog()&#10;&lt;&lt;process&gt;&gt;&#10;+ getMoves(): List&lt;Move&gt;&#10;+ addMove(move: Move): void&#10;+ size(): int&#10;+ clear(): void&#10;+ removeMove(index: int): Move&#10;+ removeMove(move: Move): boolean" style="text;strokeColor=none;fillColor=none;align=left;verticalAlign=top;spacingLeft=4;spacingRight=4;overflow=hidden;rotatable=0;points=[[0,0.5],[1,0.5]];portConstraint=eastwest;fontSize=14;fontFamily=Times New Roman;" parent="R5cSlF86ASt4ZV3UKbgb-45" vertex="1">
                    <mxGeometry y="60" width="230" height="170" as="geometry"/>
                </mxCell>
                <mxCell id="R5cSlF86ASt4ZV3UKbgb-49" value="TilePanel" style="swimlane;fontStyle=1;align=center;verticalAlign=top;childLayout=stackLayout;horizontal=1;startSize=26;horizontalStack=0;resizeParent=1;resizeParentMax=0;resizeLast=0;collapsible=1;marginBottom=0;fontSize=14;fontFamily=Times New Roman;" parent="1" vertex="1">
                    <mxGeometry x="-2040" y="-1080" width="290" height="190" as="geometry"/>
                </mxCell>
                <mxCell id="R5cSlF86ASt4ZV3UKbgb-50" value="+ tileId: int" style="text;strokeColor=none;fillColor=none;align=left;verticalAlign=top;spacingLeft=4;spacingRight=4;overflow=hidden;rotatable=0;points=[[0,0.5],[1,0.5]];portConstraint=eastwest;fontSize=14;fontFamily=Times New Roman;" parent="R5cSlF86ASt4ZV3UKbgb-49" vertex="1">
                    <mxGeometry y="26" width="290" height="26" as="geometry"/>
                </mxCell>
                <mxCell id="R5cSlF86ASt4ZV3UKbgb-51" value="" style="line;strokeWidth=1;fillColor=none;align=left;verticalAlign=middle;spacingTop=-1;spacingLeft=3;spacingRight=3;rotatable=0;labelPosition=right;points=[];portConstraint=eastwest;fontSize=14;fontFamily=Times New Roman;" parent="R5cSlF86ASt4ZV3UKbgb-49" vertex="1">
                    <mxGeometry y="52" width="290" height="8" as="geometry"/>
                </mxCell>
                <mxCell id="R5cSlF86ASt4ZV3UKbgb-52" value="&lt;&lt;constructor&gt;&gt;&#10;+ TilePanel(boardPanel: BoardPanel, tileId: int)&#10;&lt;&lt;process&gt;&gt;&#10;+ drawTile(board: Board): void&#10;+ highlightTileBorder(board: Board): void&#10;+ assignTilePieceIcon(board: Board): void&#10;+ assignTileColor(): void" style="text;strokeColor=none;fillColor=none;align=left;verticalAlign=top;spacingLeft=4;spacingRight=4;overflow=hidden;rotatable=0;points=[[0,0.5],[1,0.5]];portConstraint=eastwest;fontSize=14;fontFamily=Times New Roman;" parent="R5cSlF86ASt4ZV3UKbgb-49" vertex="1">
                    <mxGeometry y="60" width="290" height="130" as="geometry"/>
                </mxCell>
                <mxCell id="R5cSlF86ASt4ZV3UKbgb-53" value="" style="endArrow=open;startArrow=circlePlus;endFill=0;startFill=0;endSize=8;html=1;fontSize=14;fontFamily=Times New Roman;" parent="1" source="R5cSlF86ASt4ZV3UKbgb-25" target="R5cSlF86ASt4ZV3UKbgb-29" edge="1">
                    <mxGeometry width="160" relative="1" as="geometry">
                        <mxPoint x="-1840" y="-570" as="sourcePoint"/>
                        <mxPoint x="-1680" y="-570" as="targetPoint"/>
                    </mxGeometry>
                </mxCell>
                <mxCell id="R5cSlF86ASt4ZV3UKbgb-54" value="" style="endArrow=open;startArrow=circlePlus;endFill=0;startFill=0;endSize=8;html=1;fontSize=14;fontFamily=Times New Roman;" parent="1" source="R5cSlF86ASt4ZV3UKbgb-25" target="R5cSlF86ASt4ZV3UKbgb-33" edge="1">
                    <mxGeometry width="160" relative="1" as="geometry">
                        <mxPoint x="-1840" y="-570" as="sourcePoint"/>
                        <mxPoint x="-1680" y="-570" as="targetPoint"/>
                    </mxGeometry>
                </mxCell>
                <mxCell id="R5cSlF86ASt4ZV3UKbgb-55" value="" style="endArrow=open;startArrow=circlePlus;endFill=0;startFill=0;endSize=8;html=1;fontSize=14;fontFamily=Times New Roman;" parent="1" source="R5cSlF86ASt4ZV3UKbgb-25" target="R5cSlF86ASt4ZV3UKbgb-37" edge="1">
                    <mxGeometry width="160" relative="1" as="geometry">
                        <mxPoint x="-1840" y="-810" as="sourcePoint"/>
                        <mxPoint x="-1680" y="-810" as="targetPoint"/>
                    </mxGeometry>
                </mxCell>
                <mxCell id="R5cSlF86ASt4ZV3UKbgb-56" value="" style="endArrow=open;startArrow=circlePlus;endFill=0;startFill=0;endSize=8;html=1;fontSize=14;fontFamily=Times New Roman;" parent="1" source="R5cSlF86ASt4ZV3UKbgb-25" target="R5cSlF86ASt4ZV3UKbgb-49" edge="1">
                    <mxGeometry width="160" relative="1" as="geometry">
                        <mxPoint x="-1840" y="-810" as="sourcePoint"/>
                        <mxPoint x="-1680" y="-810" as="targetPoint"/>
                    </mxGeometry>
                </mxCell>
                <mxCell id="R5cSlF86ASt4ZV3UKbgb-57" value="" style="endArrow=open;startArrow=circlePlus;endFill=0;startFill=0;endSize=8;html=1;fontSize=14;fontFamily=Times New Roman;" parent="1" source="R5cSlF86ASt4ZV3UKbgb-25" target="R5cSlF86ASt4ZV3UKbgb-45" edge="1">
                    <mxGeometry width="160" relative="1" as="geometry">
                        <mxPoint x="-1840" y="-810" as="sourcePoint"/>
                        <mxPoint x="-1680" y="-810" as="targetPoint"/>
                        <Array as="points">
                            <mxPoint x="-1960" y="-850"/>
                            <mxPoint x="-1800" y="-850"/>
                        </Array>
                    </mxGeometry>
                </mxCell>
                <mxCell id="R5cSlF86ASt4ZV3UKbgb-58" value="" style="endArrow=open;startArrow=circlePlus;endFill=0;startFill=0;endSize=8;html=1;fontSize=14;fontFamily=Times New Roman;" parent="1" source="R5cSlF86ASt4ZV3UKbgb-25" target="R5cSlF86ASt4ZV3UKbgb-41" edge="1">
                    <mxGeometry width="160" relative="1" as="geometry">
                        <mxPoint x="-1840" y="-810" as="sourcePoint"/>
                        <mxPoint x="-1680" y="-810" as="targetPoint"/>
                    </mxGeometry>
                </mxCell>
                <mxCell id="R5cSlF86ASt4ZV3UKbgb-59" value="GameHistoryPanel" style="swimlane;fontStyle=1;align=center;verticalAlign=top;childLayout=stackLayout;horizontal=1;startSize=26;horizontalStack=0;resizeParent=1;resizeParentMax=0;resizeLast=0;collapsible=1;marginBottom=0;fontFamily=Times New Roman;fontSize=14;" parent="1" vertex="1">
                    <mxGeometry x="-1420" y="-1080" width="350" height="190" as="geometry"/>
                </mxCell>
                <mxCell id="R5cSlF86ASt4ZV3UKbgb-60" value="+ model: DataModel&#10;+ scrollPane: JScrollPane&#10;+ HISTORY_PANEL_DIMENSION: Dimension" style="text;strokeColor=none;fillColor=none;align=left;verticalAlign=top;spacingLeft=4;spacingRight=4;overflow=hidden;rotatable=0;points=[[0,0.5],[1,0.5]];portConstraint=eastwest;fontSize=14;fontFamily=Times New Roman;" parent="R5cSlF86ASt4ZV3UKbgb-59" vertex="1">
                    <mxGeometry y="26" width="350" height="54" as="geometry"/>
                </mxCell>
                <mxCell id="R5cSlF86ASt4ZV3UKbgb-61" value="" style="line;strokeWidth=1;fillColor=none;align=left;verticalAlign=middle;spacingTop=-1;spacingLeft=3;spacingRight=3;rotatable=0;labelPosition=right;points=[];portConstraint=eastwest;fontSize=14;fontFamily=Times New Roman;" parent="R5cSlF86ASt4ZV3UKbgb-59" vertex="1">
                    <mxGeometry y="80" width="350" height="8" as="geometry"/>
                </mxCell>
                <mxCell id="R5cSlF86ASt4ZV3UKbgb-62" value="&lt;&lt;constructor&gt;&gt;&#10;+ GameHistoryPanel()&#10;&lt;&lt;process&gt;&gt;&#10;+ redo(board: Board, moveHistory: MoveLog): void&#10;+ calculateCheckandCheckMateHash(board: Board): String &#10;" style="text;strokeColor=none;fillColor=none;align=left;verticalAlign=top;spacingLeft=4;spacingRight=4;overflow=hidden;rotatable=0;points=[[0,0.5],[1,0.5]];portConstraint=eastwest;fontSize=14;fontFamily=Times New Roman;" parent="R5cSlF86ASt4ZV3UKbgb-59" vertex="1">
                    <mxGeometry y="88" width="350" height="102" as="geometry"/>
                </mxCell>
                <mxCell id="R5cSlF86ASt4ZV3UKbgb-64" value="Row" style="swimlane;fontStyle=1;align=center;verticalAlign=top;childLayout=stackLayout;horizontal=1;startSize=26;horizontalStack=0;resizeParent=1;resizeParentMax=0;resizeLast=0;collapsible=1;marginBottom=0;fontFamily=Times New Roman;fontSize=14;" parent="1" vertex="1">
                    <mxGeometry x="-1420" y="-800" width="220" height="210" as="geometry"/>
                </mxCell>
                <mxCell id="R5cSlF86ASt4ZV3UKbgb-65" value="+ whiteMove: String&#10;+ blackMove: String" style="text;strokeColor=none;fillColor=none;align=left;verticalAlign=top;spacingLeft=4;spacingRight=4;overflow=hidden;rotatable=0;points=[[0,0.5],[1,0.5]];portConstraint=eastwest;fontSize=14;fontFamily=Times New Roman;" parent="R5cSlF86ASt4ZV3UKbgb-64" vertex="1">
                    <mxGeometry y="26" width="220" height="44" as="geometry"/>
                </mxCell>
                <mxCell id="R5cSlF86ASt4ZV3UKbgb-66" value="" style="line;strokeWidth=1;fillColor=none;align=left;verticalAlign=middle;spacingTop=-1;spacingLeft=3;spacingRight=3;rotatable=0;labelPosition=right;points=[];portConstraint=eastwest;fontSize=14;fontFamily=Times New Roman;" parent="R5cSlF86ASt4ZV3UKbgb-64" vertex="1">
                    <mxGeometry y="70" width="220" height="8" as="geometry"/>
                </mxCell>
                <mxCell id="R5cSlF86ASt4ZV3UKbgb-67" value="&lt;&lt;constructor&gt;&gt;&#10;+ Row()&#10;&lt;&lt;process&gt;&gt;&#10;+ getWhiteMove(): String&#10;+ getBlackMove(): String&#10;+ setWhiteMove(move: String): void&#10;+ setBlackMove(move: String): void" style="text;strokeColor=none;fillColor=none;align=left;verticalAlign=top;spacingLeft=4;spacingRight=4;overflow=hidden;rotatable=0;points=[[0,0.5],[1,0.5]];portConstraint=eastwest;fontSize=14;fontFamily=Times New Roman;" parent="R5cSlF86ASt4ZV3UKbgb-64" vertex="1">
                    <mxGeometry y="78" width="220" height="132" as="geometry"/>
                </mxCell>
                <mxCell id="R5cSlF86ASt4ZV3UKbgb-68" value="DataModel" style="swimlane;fontStyle=1;align=center;verticalAlign=top;childLayout=stackLayout;horizontal=1;startSize=26;horizontalStack=0;resizeParent=1;resizeParentMax=0;resizeLast=0;collapsible=1;marginBottom=0;fontFamily=Times New Roman;fontSize=14;" parent="1" vertex="1">
                    <mxGeometry x="-1140" y="-800" width="310" height="260" as="geometry"/>
                </mxCell>
                <mxCell id="R5cSlF86ASt4ZV3UKbgb-69" value="+ values: List&lt;Row&gt;&#10;+ NAMES: String[]" style="text;strokeColor=none;fillColor=none;align=left;verticalAlign=top;spacingLeft=4;spacingRight=4;overflow=hidden;rotatable=0;points=[[0,0.5],[1,0.5]];portConstraint=eastwest;fontSize=14;fontFamily=Times New Roman;" parent="R5cSlF86ASt4ZV3UKbgb-68" vertex="1">
                    <mxGeometry y="26" width="310" height="44" as="geometry"/>
                </mxCell>
                <mxCell id="R5cSlF86ASt4ZV3UKbgb-70" value="" style="line;strokeWidth=1;fillColor=none;align=left;verticalAlign=middle;spacingTop=-1;spacingLeft=3;spacingRight=3;rotatable=0;labelPosition=right;points=[];portConstraint=eastwest;fontSize=14;fontFamily=Times New Roman;" parent="R5cSlF86ASt4ZV3UKbgb-68" vertex="1">
                    <mxGeometry y="70" width="310" height="8" as="geometry"/>
                </mxCell>
                <mxCell id="R5cSlF86ASt4ZV3UKbgb-71" value="&lt;&lt;constructor&gt;&gt;&#10;+ DataModel()&#10;&lt;&lt;process&gt;&gt;&#10;+ clear(): void&#10;+ getRowCount(): int&#10;+ getColumnCount(): int&#10;+ getValueAt(row: int, col: int): Object&#10;+ setValueAt(aValue: Object, row: int, col: int): void&#10;+ getColumnClass(col: int): Class&lt;?&gt;&#10;+ getColumnName(col: int): String" style="text;strokeColor=none;fillColor=none;align=left;verticalAlign=top;spacingLeft=4;spacingRight=4;overflow=hidden;rotatable=0;points=[[0,0.5],[1,0.5]];portConstraint=eastwest;fontSize=14;fontFamily=Times New Roman;" parent="R5cSlF86ASt4ZV3UKbgb-68" vertex="1">
                    <mxGeometry y="78" width="310" height="182" as="geometry"/>
                </mxCell>
                <mxCell id="R5cSlF86ASt4ZV3UKbgb-72" value="" style="endArrow=open;startArrow=circlePlus;endFill=0;startFill=0;endSize=8;html=1;fontFamily=Times New Roman;fontSize=14;" parent="1" source="R5cSlF86ASt4ZV3UKbgb-59" target="R5cSlF86ASt4ZV3UKbgb-68" edge="1">
                    <mxGeometry width="160" relative="1" as="geometry">
                        <mxPoint x="-840" y="-800" as="sourcePoint"/>
                        <mxPoint x="-680" y="-800" as="targetPoint"/>
                    </mxGeometry>
                </mxCell>
                <mxCell id="R5cSlF86ASt4ZV3UKbgb-73" value="" style="endArrow=open;startArrow=circlePlus;endFill=0;startFill=0;endSize=8;html=1;fontFamily=Times New Roman;fontSize=14;" parent="1" source="R5cSlF86ASt4ZV3UKbgb-59" target="R5cSlF86ASt4ZV3UKbgb-64" edge="1">
                    <mxGeometry width="160" relative="1" as="geometry">
                        <mxPoint x="-840" y="-800" as="sourcePoint"/>
                        <mxPoint x="-680" y="-800" as="targetPoint"/>
                    </mxGeometry>
                </mxCell>
                <mxCell id="R5cSlF86ASt4ZV3UKbgb-74" value="TakenPiecesPanel" style="swimlane;fontStyle=1;align=center;verticalAlign=top;childLayout=stackLayout;horizontal=1;startSize=26;horizontalStack=0;resizeParent=1;resizeParentMax=0;resizeLast=0;collapsible=1;marginBottom=0;fontFamily=Times New Roman;fontSize=14;" parent="1" vertex="1">
                    <mxGeometry x="-700" y="-1080" width="340" height="210" as="geometry"/>
                </mxCell>
                <mxCell id="R5cSlF86ASt4ZV3UKbgb-75" value="+ northPanel: JPanel&#10;+ southPanel: JPanel&#10;+ PANEL_COLOR: Color&#10;+ TAKEN_PIECES_PANEL_DIMENSION: Dimension&#10;+ PANEL_BORDER: EtchedBorder" style="text;strokeColor=none;fillColor=none;align=left;verticalAlign=top;spacingLeft=4;spacingRight=4;overflow=hidden;rotatable=0;points=[[0,0.5],[1,0.5]];portConstraint=eastwest;fontSize=14;fontFamily=Times New Roman;" parent="R5cSlF86ASt4ZV3UKbgb-74" vertex="1">
                    <mxGeometry y="26" width="340" height="94" as="geometry"/>
                </mxCell>
                <mxCell id="R5cSlF86ASt4ZV3UKbgb-76" value="" style="line;strokeWidth=1;fillColor=none;align=left;verticalAlign=middle;spacingTop=-1;spacingLeft=3;spacingRight=3;rotatable=0;labelPosition=right;points=[];portConstraint=eastwest;fontSize=14;fontFamily=Times New Roman;" parent="R5cSlF86ASt4ZV3UKbgb-74" vertex="1">
                    <mxGeometry y="120" width="340" height="8" as="geometry"/>
                </mxCell>
                <mxCell id="R5cSlF86ASt4ZV3UKbgb-77" value="&lt;&lt;constructor&gt;&gt;&#10;+ TakenPiecesPanel()&#10;&lt;&lt;process&gt;&gt;&#10;+ redo(moveLog: MoveLog): void" style="text;strokeColor=none;fillColor=none;align=left;verticalAlign=top;spacingLeft=4;spacingRight=4;overflow=hidden;rotatable=0;points=[[0,0.5],[1,0.5]];portConstraint=eastwest;fontSize=14;fontFamily=Times New Roman;" parent="R5cSlF86ASt4ZV3UKbgb-74" vertex="1">
                    <mxGeometry y="128" width="340" height="82" as="geometry"/>
                </mxCell>
                <mxCell id="R5cSlF86ASt4ZV3UKbgb-81" value="&lt;b&gt;&lt;font style=&quot;font-size: 29px&quot;&gt;chess&lt;/font&gt;&lt;/b&gt;" style="text;html=1;strokeColor=none;fillColor=none;align=center;verticalAlign=middle;whiteSpace=wrap;rounded=0;fontFamily=Times New Roman;fontSize=14;" parent="1" vertex="1">
                    <mxGeometry x="-2472.5" y="-3270" width="282.5" height="50" as="geometry"/>
                </mxCell>
                <mxCell id="R5cSlF86ASt4ZV3UKbgb-82" value="MainChess" style="swimlane;fontStyle=1;align=center;verticalAlign=top;childLayout=stackLayout;horizontal=1;startSize=26;horizontalStack=0;resizeParent=1;resizeParentMax=0;resizeLast=0;collapsible=1;marginBottom=0;fontFamily=Times New Roman;fontSize=14;" parent="1" vertex="1">
                    <mxGeometry x="140" y="-1130" width="640" height="70" as="geometry"/>
                </mxCell>
                <mxCell id="R5cSlF86ASt4ZV3UKbgb-84" value="" style="line;strokeWidth=1;fillColor=none;align=left;verticalAlign=middle;spacingTop=-1;spacingLeft=3;spacingRight=3;rotatable=0;labelPosition=right;points=[];portConstraint=eastwest;" parent="R5cSlF86ASt4ZV3UKbgb-82" vertex="1">
                    <mxGeometry y="26" width="640" height="8" as="geometry"/>
                </mxCell>
                <mxCell id="R5cSlF86ASt4ZV3UKbgb-85" value="+ main(args: String[]): void" style="text;strokeColor=none;fillColor=none;align=left;verticalAlign=top;spacingLeft=4;spacingRight=4;overflow=hidden;rotatable=0;points=[[0,0.5],[1,0.5]];portConstraint=eastwest;fontSize=14;fontFamily=Times New Roman;" parent="R5cSlF86ASt4ZV3UKbgb-82" vertex="1">
                    <mxGeometry y="34" width="640" height="36" as="geometry"/>
                </mxCell>
                <mxCell id="2" value="Extends" style="endArrow=block;endSize=16;endFill=0;html=1;entryX=0;entryY=0.5;entryDx=0;entryDy=0;" parent="1" source="LNlhiUmVujPS2ecl1WR9-38" target="LNlhiUmVujPS2ecl1WR9-19" edge="1">
                    <mxGeometry width="160" relative="1" as="geometry">
                        <mxPoint x="-1100" y="-2270" as="sourcePoint"/>
                        <mxPoint x="-940" y="-2270" as="targetPoint"/>
                    </mxGeometry>
                </mxCell>
                <mxCell id="3" value="Extends" style="endArrow=block;endSize=16;endFill=0;html=1;" parent="1" source="LNlhiUmVujPS2ecl1WR9-58" target="LNlhiUmVujPS2ecl1WR9-21" edge="1">
                    <mxGeometry width="160" relative="1" as="geometry">
                        <mxPoint x="-1100" y="-2140" as="sourcePoint"/>
                        <mxPoint x="-940" y="-2140" as="targetPoint"/>
                    </mxGeometry>
                </mxCell>
                <mxCell id="4" value="Extends" style="endArrow=block;endSize=16;endFill=0;html=1;exitX=1;exitY=0.25;exitDx=0;exitDy=0;entryX=0;entryY=0.5;entryDx=0;entryDy=0;" parent="1" source="LNlhiUmVujPS2ecl1WR9-54" target="LNlhiUmVujPS2ecl1WR9-21" edge="1">
                    <mxGeometry width="160" relative="1" as="geometry">
                        <mxPoint x="-1100" y="-2140" as="sourcePoint"/>
                        <mxPoint x="-940" y="-2140" as="targetPoint"/>
                    </mxGeometry>
                </mxCell>
                <mxCell id="5" value="Extends" style="endArrow=block;endSize=16;endFill=0;html=1;exitX=0.5;exitY=0;exitDx=0;exitDy=0;" parent="1" source="LNlhiUmVujPS2ecl1WR9-50" target="LNlhiUmVujPS2ecl1WR9-21" edge="1">
                    <mxGeometry width="160" relative="1" as="geometry">
                        <mxPoint x="-220" y="-2000" as="sourcePoint"/>
                        <mxPoint x="-60" y="-2000" as="targetPoint"/>
                    </mxGeometry>
                </mxCell>
                <mxCell id="6" value="Extends" style="endArrow=block;endSize=16;endFill=0;html=1;exitX=0;exitY=0.5;exitDx=0;exitDy=0;entryX=1.003;entryY=0.122;entryDx=0;entryDy=0;entryPerimeter=0;" parent="1" source="LNlhiUmVujPS2ecl1WR9-47" target="LNlhiUmVujPS2ecl1WR9-21" edge="1">
                    <mxGeometry width="160" relative="1" as="geometry">
                        <mxPoint x="-220" y="-2270" as="sourcePoint"/>
                        <mxPoint x="-60" y="-2270" as="targetPoint"/>
                    </mxGeometry>
                </mxCell>
                <mxCell id="7" value="Extends" style="endArrow=block;endSize=16;endFill=0;html=1;entryX=0.75;entryY=0;entryDx=0;entryDy=0;" parent="1" source="LNlhiUmVujPS2ecl1WR9-42" target="LNlhiUmVujPS2ecl1WR9-18" edge="1">
                    <mxGeometry width="160" relative="1" as="geometry">
                        <mxPoint x="-220" y="-2410" as="sourcePoint"/>
                        <mxPoint x="-60" y="-2410" as="targetPoint"/>
                    </mxGeometry>
                </mxCell>
            </root>
        </mxGraphModel>
    </diagram>
</mxfile>